<svg xmlns="http://www.w3.org/2000/svg" width="24.11" height="18.752" viewBox="0 0 24.11 18.752">
  <g id="Group_18344" data-name="Group 18344" transform="translate(0 0)">
    <path id="Path_18" data-name="Path 18" d="M241.748-1762.545c-3.679,3.459-7.257,6.824-10.837,10.186-.967.908-.961.894-1.94-.031-3.55-3.352-7.107-6.7-10.781-10.155Z" transform="translate(-218.114 1762.545)" fill="#fff"/>
    <path id="Path_19" data-name="Path 19" d="M218.207-1731.67c2.564-2.86,5.054-5.62,7.519-8.4.316-.356.486-.174.722.022.964.8,1.952,1.569,2.883,2.4.466.417.709.494,1.2-.04.961-1.053,2.05-1.991,3.105-2.995a2.51,2.51,0,0,1,.228.217q3.9,4.356,7.808,8.728C241-1731.546,219.81-1731.474,218.207-1731.67Z" transform="translate(-218.124 1750.306)" fill="#fff"/>
    <path id="Path_20" data-name="Path 20" d="M264.648-1743.349c-2.145-2.665-4.186-5.214-6.246-7.749-.294-.362-.125-.566.117-.824,2.011-2.153,4.015-4.311,6.13-6.583Z" transform="translate(-240.538 1760.283)" fill="#fff"/>
    <path id="Path_21" data-name="Path 21" d="M218.12-1743.311c-.164-1.529-.12-14.294.047-15.051,2.069,2.229,4.106,4.429,6.154,6.62a.493.493,0,0,1,.026.765C222.3-1748.467,220.262-1745.95,218.12-1743.311Z" transform="translate(-218.018 1760.203)" fill="#fff"/>
  </g>
</svg>
