<svg xmlns="http://www.w3.org/2000/svg" width="18.062" height="18.062" viewBox="0 0 18.062 18.062"><defs><style>.a{fill:#3c94e3;}</style></defs><g transform="translate(0)"><path class="a" d="M9.04,0A9.031,9.031,0,1,1,0,9.007,9.031,9.031,0,0,1,9.04,0ZM8.35,6.863H6.739a1.346,1.346,0,0,0-.347.049.336.336,0,0,0-.264.28.321.321,0,0,0,.181.372,1.64,1.64,0,0,0,.551.148c.5.023.7.244.629.76-.141.966-.331,1.925-.493,2.89-.11.65-.2,1.3-.309,1.952a1.731,1.731,0,0,0,1.322,1.806,7.706,7.706,0,0,0,1.16.074,3.018,3.018,0,0,0,2.195-.95.834.834,0,0,0,.226-.349.428.428,0,0,0-.076-.332.327.327,0,0,0-.284-.031c-.148.049-.28.15-.424.213a2.619,2.619,0,0,1-.527.181.515.515,0,0,1-.636-.459,1.739,1.739,0,0,1-.016-.509c.061-.419.148-.834.224-1.25q.309-1.7.627-3.4a2.438,2.438,0,0,0,.09-.943.542.542,0,0,0-.589-.5Zm.983-4.017A1.64,1.64,0,1,0,10.9,4.521,1.64,1.64,0,0,0,9.332,2.847Z" transform="translate(0 0)"/></g></svg>