<svg xmlns="http://www.w3.org/2000/svg" width="19" height="16.286" viewBox="0 0 19 16.286"><defs><style>.a{fill:gray;}</style></defs><circle class="a" cx="1.81" cy="1.81" r="1.81" transform="translate(0 0)"/><circle class="a" cx="1.81" cy="1.81" r="1.81" transform="translate(0 6.333)"/><circle class="a" cx="1.81" cy="1.81" r="1.81" transform="translate(0 12.667)"/><path class="a" d="M120.06,90.119h9.952a1.81,1.81,0,1,0,0-3.619H120.06a1.81,1.81,0,1,0,0,3.619Z" transform="translate(-112.821 -86.5)"/><path class="a" d="M130.012,135.889H120.06a1.81,1.81,0,1,0,0,3.619h9.952a1.81,1.81,0,1,0,0-3.619Z" transform="translate(-112.821 -129.556)"/><path class="a" d="M130.012,185.278H120.06a1.81,1.81,0,1,0,0,3.619h9.952a1.81,1.81,0,1,0,0-3.619Z" transform="translate(-112.821 -172.611)"/></svg>