<svg id="Group_3" data-name="Group 3" xmlns="http://www.w3.org/2000/svg" width="24" height="24" viewBox="0 0 24 24">
  <rect id="Rectangle_1" data-name="Rectangle 1" width="24" height="24" fill="none"/>
  <g id="noun_Shuffle_3444431" transform="translate(-1 -6)">
    <path id="Path_5" data-name="Path 5" d="M18.548,28.474V26.489H15.443a5.583,5.583,0,0,1-5.569-5.342v-.234a3.14,3.14,0,0,0-3.14-3.14H3V15.33H6.741a5.583,5.583,0,0,1,5.583,5.583v.234a3.14,3.14,0,0,0,3.116,2.893h3.105V21.813l4.693,3.322Z" transform="translate(0 -2.819)"/>
    <path id="Path_6" data-name="Path 6" d="M9.483,37a6.281,6.281,0,0,0,1.347,2.285,5.558,5.558,0,0,1-4.089,1.79H3V38.633H6.741A3.14,3.14,0,0,0,9.483,37Z" transform="translate(0 -16.928)"/>
    <path id="Path_7" data-name="Path 7" d="M34.936,17.661V15.435H31.83a3.14,3.14,0,0,0-2.565,1.343,6.249,6.249,0,0,0-1.1-2.418,5.551,5.551,0,0,1,3.66-1.375h3.105V11l4.69,3.339Z" transform="translate(-16.387 0)"/>
  </g>
</svg>
