<svg xmlns="http://www.w3.org/2000/svg" width="24.977" height="24.977" viewBox="0 0 24.977 24.977"><defs><style>.a{fill:#06a8e0;}</style></defs><g transform="translate(-2.5 -2.5)"><g transform="translate(2.5 2.5)"><path class="a" d="M22.481,27.557a2.042,2.042,0,0,1-2.024,2.024H7.653a2.042,2.042,0,0,1-2.024-2.024v-12.8a2.042,2.042,0,0,1,2.024-2.024h6.2L17.013,9.6H7.653A5.161,5.161,0,0,0,2.5,14.753v12.8A5.161,5.161,0,0,0,7.653,32.71h12.8a5.161,5.161,0,0,0,5.153-5.153V18.2l-3.129,3.155Z" transform="translate(-2.5 -7.733)"/><path class="a" d="M29.781,51.948A.831.831,0,0,0,30.832,53l3.418-1.131a6.134,6.134,0,0,0,1.63-.894L31.805,46.9a5.476,5.476,0,0,0-.894,1.63Z" transform="translate(-22.577 -35.227)"/><path class="a" d="M58.84,4.577,57.316,3.052a1.872,1.872,0,0,0-2.655,0l-8.86,8.86,4.18,4.18,8.86-8.86A1.872,1.872,0,0,0,58.84,4.577Z" transform="translate(-34.416 -2.5)"/></g></g></svg>