<svg xmlns="http://www.w3.org/2000/svg" xmlns:xlink="http://www.w3.org/1999/xlink" width="24" height="24" viewBox="0 0 24 24">
  <defs>
    <clipPath id="clip-Web_1920_2">
      <rect width="24" height="24"/>
    </clipPath>
  </defs>
  <g id="Web_1920_2" data-name="Web 1920 – 2" clip-path="url(#clip-Web_1920_2)">
    <rect width="24" height="24" fill="#fff"/>
    <g id="Group_2" data-name="Group 2">
      <rect id="Rectangle_1" data-name="Rectangle 1" width="24" height="24" fill="none"/>
      <g id="noun_page_3258694" transform="translate(-0.6 1)">
        <g id="_01" data-name="01" transform="translate(4.6 2)">
          <path id="Path_2" data-name="Path 2" d="M21,5.825a.243.243,0,0,0,.242.243H24.8L21.111,2.374A.932.932,0,0,0,21,2.283Z" transform="translate(-10.143 -2.096)"/>
          <path id="Path_3" data-name="Path 3" d="M20.857,6.634H16.863a.906.906,0,0,1-.9-.9V2H9.868a1.812,1.812,0,0,0-1.81,1.81V4.3H8.042V16.432a1.789,1.789,0,0,0,1.787,1.787h9.436a1.806,1.806,0,0,0,1.592-1.787ZM11.324,8.289H14.3a.331.331,0,0,1,0,.662H11.324a.331.331,0,0,1,0-.662Zm5.958,5.958H11.324a.331.331,0,1,1,0-.662h5.958a.331.331,0,1,1,0,.662Zm0-2.648H11.324a.331.331,0,0,1,0-.662h5.958a.331.331,0,0,1,0,.662Z" transform="translate(-5.763 -2)"/>
          <path id="Path_4" data-name="Path 4" d="M8.666,20.063a2.452,2.452,0,0,1-2.449-2.449V5.5A1.806,1.806,0,0,0,4.6,7.286V19.908a1.812,1.812,0,0,0,1.809,1.81h9.18a1.806,1.806,0,0,0,1.794-1.655Z" transform="translate(-4.6 -3.182)"/>
        </g>
      </g>
    </g>
  </g>
</svg>
