<svg xmlns="http://www.w3.org/2000/svg" width="28.974" height="27.134" viewBox="0 0 28.974 27.134"><g transform="translate(269.795 140.041)"><g transform="translate(-269.795 -140.041)"><path d="M-258.654-126.48q0,5.787,0,11.574a2.532,2.532,0,0,1-.373,1.416,1.231,1.231,0,0,1-.746.568.479.479,0,0,1-.331-.038q-4.122-1.881-8.247-3.757a.5.5,0,0,0-.151-.057,1.3,1.3,0,0,1-1.071-.868,2.443,2.443,0,0,1-.222-1.056q0-5.234,0-10.468,0-2.549,0-5.1a2.394,2.394,0,0,1,.348-1.3,1.2,1.2,0,0,1,.924-.628.555.555,0,0,0,.17-.058q4.083-1.857,8.163-3.722a.7.7,0,0,1,.746.071,1.881,1.881,0,0,1,.75,1.316,3.2,3.2,0,0,1,.039.578Q-258.654-132.24-258.654-126.48Zm-3.473.965a1.61,1.61,0,0,0,1.621-1.607,1.619,1.619,0,0,0-1.61-1.621,1.619,1.619,0,0,0-1.62,1.61A1.611,1.611,0,0,0-262.127-125.516Z" transform="translate(269.795 140.041)" fill="#fff"/><path d="M160.594,46.339a3.32,3.32,0,0,0,.252.318q2.944,2.9,5.9,5.8c.123.121.131.181,0,.307q-3.033,2.968-6.056,5.947c-.042.041-.087.08-.132.122-.058-.068-.034-.137-.035-.2,0-.774-.005-1.548,0-2.322,0-.151-.041-.191-.192-.191-2.3,0-4.595,0-6.892.006-.17,0-.225-.037-.225-.217q.009-3.183,0-6.366c0-.16.041-.2.2-.2,2.3.005,4.595,0,6.892.008.176,0,.221-.047.219-.221-.009-.846,0-1.693,0-2.539A.305.305,0,0,1,160.594,46.339Z" transform="translate(-137.864 -39.576)" fill="#fff"/><path d="M105.066,349.592c-.937,0-1.874,0-2.812,0-.159,0-.206-.039-.2-.2.01-.6.009-1.2,0-1.8,0-.145.042-.182.184-.182,1.826,0,3.652,0,5.478.007.181,0,.232-.04.231-.228-.009-1.554,0-3.108-.009-4.662,0-.172.042-.227.22-.223.5.012,1,.008,1.505,0,.127,0,.164.038.164.164,0,1.639.008,3.277-.007,4.916a2.242,2.242,0,0,1-.895,1.841,1.737,1.737,0,0,1-1.082.357C106.916,349.593,105.991,349.592,105.066,349.592Z" transform="translate(-88.558 -324.808)" fill="#fff"/><path d="M105.092-75.716c.87,0,1.742.025,2.611-.006a2.067,2.067,0,0,1,2.1,1.874,6.27,6.27,0,0,1,.029.851c0,1.076,0,2.152,0,3.228,0,.14-.034.187-.18.184-.508-.009-1.016-.01-1.523,0-.158,0-.186-.053-.186-.2.006-1.185,0-2.37.008-3.554,0-.163-.039-.213-.209-.213-1.813.006-3.627,0-5.44,0-.239,0-.239,0-.239-.248,0-.574.005-1.149,0-1.723,0-.156.035-.207.2-.206C103.206-75.712,104.149-75.716,105.092-75.716Z" transform="translate(-88.571 78.057)" fill="#fff"/></g></g></svg>