<svg xmlns="http://www.w3.org/2000/svg" width="20.495" height="21.53" viewBox="0 0 20.495 21.53"><path d="M2677.889-1121.283c-3.753,0-6.319-1.985-7-5.112a6.583,6.583,0,0,1,1.806-6.362q4.329-4.36,8.688-8.689a4.707,4.707,0,0,1,4.075-1.323,4.359,4.359,0,0,1,3.355,2.067,5.044,5.044,0,0,1-.7,6.1c-2.912,2.869-5.789,5.774-8.682,8.663a3.074,3.074,0,0,1-3.86.276,2.627,2.627,0,0,1-1.03-2.057,3,3,0,0,1,.939-2.425c2.651-2.623,5.282-5.266,7.921-7.9a.964.964,0,0,1,1.4-.047.948.948,0,0,1,.07,1.284,2.787,2.787,0,0,1-.2.211l-7.788,7.779c-.048.047-.094.1-.143.142-.65.6-.51,1.123.168,1.623a.679.679,0,0,0,.873,0,2.068,2.068,0,0,0,.287-.25q4.365-4.356,8.727-8.714a2.835,2.835,0,0,0,.947-2.039,2.941,2.941,0,0,0-1.419-2.486,2.642,2.642,0,0,0-3.35.233c-.072.064-.144.132-.212.2l-8.784,8.784a4.781,4.781,0,0,0-1.424,2.688,4.493,4.493,0,0,0,.984,3.612,4.866,4.866,0,0,0,3.146,1.9,4.532,4.532,0,0,0,3.553-.969,6.147,6.147,0,0,0,.6-.543q4.312-4.313,8.623-8.627a1,1,0,0,1,.986-.341.959.959,0,0,1,.518,1.559c-.048.057-.1.109-.156.161q-4.288,4.289-8.574,8.58A6.491,6.491,0,0,1,2677.889-1121.283Z" transform="translate(-2670.707 1142.813)" fill="#3c94e3"/></svg>