<svg xmlns="http://www.w3.org/2000/svg" width="157" height="31.218" viewBox="0 0 157 31.218">
  <g id="Group_2741" data-name="Group 2741" transform="translate(-40.586 770.632)">
    <path id="Path_45" data-name="Path 45" d="M90.489-761.067l-.035-.074a14.587,14.587,0,0,0-19.8-7c-6.422,3.067-8.541,7.932-8.885,12.811h0c-.156,2.422-.89,4.4-3.319,5.556-2.842,1.358-5.964-.052-7.568-3.411l-.035-.074c-1.481-3.1-.778-6.564,2.138-7.956,2.362-1.128,4.346-.489,6.186.9l5.132-7.573A14.037,14.037,0,0,0,49.4-769.018c-7.714,3.685-10.98,12.316-7.3,20.031l.035.073a14.589,14.589,0,0,0,19.8,7,17.933,17.933,0,0,0,3.9-2.491l-.006.011a14.71,14.71,0,0,0,8.986,4.866,14.6,14.6,0,0,0,8.377-1.509C90.908-744.721,94.174-753.353,90.489-761.067ZM79.6-748.84a6.176,6.176,0,0,1-2.5.578,6.39,6.39,0,0,1-4.635-2.594,7.769,7.769,0,0,1-1.653-3.846l0-.024h0c.156-2.421.889-4.4,3.319-5.556,2.842-1.357,5.963.052,7.568,3.412l.035.073C83.222-753.7,82.518-750.233,79.6-748.84Z" transform="translate(0 0)" fill="#fff"/>
    <path id="Path_46" data-name="Path 46" d="M97.363-769.465h14.466c5.246,0,8.587,1.311,10.66,3.384a9.3,9.3,0,0,1,2.707,7.023v.084a9.575,9.575,0,0,1-5.838,9.052l6.9,10.068H114.96l-5.584-8.461h-2.116v8.461h-9.9Zm14.171,14.086c2.369,0,3.806-1.057,3.806-2.876v-.085c0-1.9-1.48-2.834-3.764-2.834h-4.315v5.8Z" transform="translate(-2.669 -0.055)" fill="#fff"/>
    <path id="Path_47" data-name="Path 47" d="M129.1-769.465h25.253v8.122H138.829v3H153.3v7.149H138.829v3.214h15.736v8.122H129.1Z" transform="translate(-4.162 -0.055)" fill="#fff"/>
    <g id="Group_2740" data-name="Group 2740" transform="translate(154.009 -769.52)">
      <path id="Path_48" data-name="Path 48" d="M164.637-756.741a5.366,5.366,0,0,0,2.641-.457q.726-.459.727-2.121v-3.825a2.068,2.068,0,0,0-.561-1.5,2.011,2.011,0,0,0-1.518-.582,1.79,1.79,0,0,0-1.6.707,2.455,2.455,0,0,0-.478,1.372v2.412H159.6v-2.454a6.164,6.164,0,0,1,.5-2.453,5.969,5.969,0,0,1,1.372-2,6.813,6.813,0,0,1,2.037-1.331,6.262,6.262,0,0,1,2.495-.5,5.54,5.54,0,0,1,2.889.687,6.678,6.678,0,0,1,1.726,1.392,9.266,9.266,0,0,1,.728,1,4.893,4.893,0,0,1,.519,1.206,16.575,16.575,0,0,1,.374,4.075q0,1.538-.062,2.495a5.214,5.214,0,0,1-.312,1.58,3.168,3.168,0,0,1-.811,1.123,9.534,9.534,0,0,1-1.434,1,8.1,8.1,0,0,1,1.518,1.165,3.432,3.432,0,0,1,.769,1.247,6.459,6.459,0,0,1,.291,1.767q.041,1.019.041,2.6,0,1.457-.062,2.412a12.343,12.343,0,0,1-.187,1.58,4.929,4.929,0,0,1-.333,1.123,6.9,6.9,0,0,1-.54.956,6.729,6.729,0,0,1-2.017,1.935,6,6,0,0,1-3.223.769,7.5,7.5,0,0,1-2.12-.333,5.768,5.768,0,0,1-2.038-1.082,5.858,5.858,0,0,1-1.518-1.954,6.554,6.554,0,0,1-.6-2.952v-2.412h4.242v2.2a2.409,2.409,0,0,0,.561,1.643,1.909,1.909,0,0,0,1.517.644,1.909,1.909,0,0,0,1.518-.644,2.533,2.533,0,0,0,.561-1.726v-4.242a2.918,2.918,0,0,0-.665-2.286,1.854,1.854,0,0,0-1.019-.417,13.752,13.752,0,0,0-1.684-.083Z" transform="translate(-159.605 769.465)" fill="#fff"/>
      <path id="Path_49" data-name="Path 49" d="M186.938-769.2l-4.823,12.433.083.084a1.669,1.669,0,0,1,.644-.271,5.148,5.148,0,0,1,1.145-.1,4.164,4.164,0,0,1,2.078.54,4.236,4.236,0,0,1,1.5,1.373,4.788,4.788,0,0,1,.457.914,7.131,7.131,0,0,1,.291,1.207q.083.748.125,1.892t.041,2.891q0,1.455-.041,2.39t-.125,1.559a5.82,5.82,0,0,1-.312,1.124,7.644,7.644,0,0,1-.478.956,5.734,5.734,0,0,1-2.224,2.12,6.526,6.526,0,0,1-3.14.749,6.268,6.268,0,0,1-3.118-.769,6.035,6.035,0,0,1-2.2-2.1,5.529,5.529,0,0,1-.519-.956,4.477,4.477,0,0,1-.271-1.124,10.547,10.547,0,0,1-.166-1.559q-.041-.935-.042-2.39,0-1.374.042-2.267t.125-1.559a6.574,6.574,0,0,1,.25-1.144c.111-.346.234-.713.375-1.1L182.2-769.2Zm-2.7,18a2.008,2.008,0,0,0-.623-1.538,2.07,2.07,0,0,0-1.456-.582,2.062,2.062,0,0,0-1.454.582,2.005,2.005,0,0,0-.624,1.538v5.489a2,2,0,0,0,.624,1.538,2.058,2.058,0,0,0,1.454.582,2.066,2.066,0,0,0,1.456-.582,2.005,2.005,0,0,0,.623-1.538Z" transform="translate(-160.368 769.453)" fill="#fff"/>
      <path id="Path_50" data-name="Path 50" d="M192.068-763.1a6.46,6.46,0,0,1,.519-2.661,6.234,6.234,0,0,1,1.392-2A5.978,5.978,0,0,1,196-769.028a6.653,6.653,0,0,1,2.391-.437,6.66,6.66,0,0,1,2.391.437,5.993,5.993,0,0,1,2.017,1.268,6.249,6.249,0,0,1,1.392,2,6.46,6.46,0,0,1,.52,2.661v17.382a6.457,6.457,0,0,1-.52,2.661,6.243,6.243,0,0,1-1.392,2,5.99,5.99,0,0,1-2.017,1.267,6.638,6.638,0,0,1-2.391.437A6.631,6.631,0,0,1,196-739.8a5.975,5.975,0,0,1-2.017-1.267,6.228,6.228,0,0,1-1.392-2,6.457,6.457,0,0,1-.519-2.661Zm4.241,17.382a2.1,2.1,0,0,0,.582,1.518,1.99,1.99,0,0,0,1.5.6,1.991,1.991,0,0,0,1.5-.6,2.1,2.1,0,0,0,.583-1.518V-763.1a2.1,2.1,0,0,0-.583-1.517,1.992,1.992,0,0,0-1.5-.6,1.991,1.991,0,0,0-1.5.6,2.1,2.1,0,0,0-.582,1.517Z" transform="translate(-161.131 769.465)" fill="#fff"/>
    </g>
  </g>
</svg>
