<svg xmlns="http://www.w3.org/2000/svg" width="202.785" height="40" viewBox="0 0 202.785 40"><g transform="translate(0 1)"><g transform="translate(0.001 0.49)"><g transform="translate(-0.001 0)"><path d="M87.487-761.642l-.033-.07a13.71,13.71,0,0,0-18.606-6.577c-6.036,2.882-8.027,7.455-8.35,12.041h0c-.147,2.276-.837,4.132-3.12,5.222-2.671,1.276-5.605-.049-7.112-3.206l-.033-.07c-1.392-2.914-.731-6.169,2.009-7.478,2.22-1.06,4.084-.459,5.814.845l4.823-7.118a13.193,13.193,0,0,0-14.012-1.061,13.907,13.907,0,0,0-6.857,18.826l.033.069a13.712,13.712,0,0,0,18.607,6.578,16.853,16.853,0,0,0,3.668-2.341l-.005.011a13.825,13.825,0,0,0,8.445,4.573,13.721,13.721,0,0,0,7.873-1.418A13.9,13.9,0,0,0,87.487-761.642ZM77.255-750.151a5.806,5.806,0,0,1-2.346.543,6.006,6.006,0,0,1-4.357-2.438A7.3,7.3,0,0,1,69-755.661l0-.022h0c.147-2.276.836-4.131,3.12-5.222,2.671-1.275,5.6.049,7.112,3.206l.033.069C80.657-754.716,80-751.46,77.255-750.151Z" transform="translate(-40.586 770.632)" fill="#fff"/><path d="M97.363-769.465h13.6c4.931,0,8.071,1.232,10.019,3.18a8.743,8.743,0,0,1,2.545,6.6v.079a9,9,0,0,1-5.487,8.508l6.481,9.463H113.9l-5.248-7.952h-1.988v7.952h-9.3Zm13.319,13.239c2.227,0,3.577-.993,3.577-2.7v-.08c0-1.789-1.391-2.664-3.538-2.664h-4.056v5.446Z" transform="translate(-46.51 770.51)" fill="#fff"/><path d="M129.1-769.465h23.734v7.634h-14.59v2.822h13.6v6.719h-13.6v3.021h14.789v7.634H129.1Z" transform="translate(-49.822 770.51)" fill="#fff"/><g transform="translate(106.601 1.045)"><path d="M164.334-757.506a5.044,5.044,0,0,0,2.482-.429q.683-.432.683-1.994v-3.6a1.943,1.943,0,0,0-.528-1.407,1.89,1.89,0,0,0-1.427-.547,1.682,1.682,0,0,0-1.5.664,2.307,2.307,0,0,0-.45,1.29v2.267H159.6v-2.306a5.793,5.793,0,0,1,.469-2.305,5.61,5.61,0,0,1,1.29-1.876A6.4,6.4,0,0,1,163.279-769a5.886,5.886,0,0,1,2.345-.469,5.208,5.208,0,0,1,2.716.646,6.276,6.276,0,0,1,1.622,1.309,8.7,8.7,0,0,1,.684.938,4.6,4.6,0,0,1,.488,1.134,15.579,15.579,0,0,1,.351,3.83q0,1.446-.058,2.345a4.9,4.9,0,0,1-.293,1.485,2.977,2.977,0,0,1-.762,1.055,8.96,8.96,0,0,1-1.348.938,7.613,7.613,0,0,1,1.427,1.094,3.226,3.226,0,0,1,.723,1.172,6.069,6.069,0,0,1,.273,1.661q.039.958.039,2.443,0,1.369-.058,2.267a11.6,11.6,0,0,1-.176,1.485,4.634,4.634,0,0,1-.313,1.055,6.5,6.5,0,0,1-.508.9,6.325,6.325,0,0,1-1.9,1.818,5.639,5.639,0,0,1-3.029.723,7.042,7.042,0,0,1-1.993-.313A5.422,5.422,0,0,1,161.6-742.5a5.506,5.506,0,0,1-1.427-1.836,6.16,6.16,0,0,1-.567-2.775v-2.267h3.987v2.071a2.264,2.264,0,0,0,.528,1.544,1.794,1.794,0,0,0,1.426.606,1.794,1.794,0,0,0,1.427-.606,2.381,2.381,0,0,0,.528-1.622v-3.987a2.743,2.743,0,0,0-.625-2.149,1.742,1.742,0,0,0-.957-.391,12.933,12.933,0,0,0-1.583-.078Z" transform="translate(-159.605 769.465)" fill="#fff"/><path d="M186.27-769.2l-4.533,11.685.078.079a1.569,1.569,0,0,1,.605-.254,4.836,4.836,0,0,1,1.076-.1,3.914,3.914,0,0,1,1.953.508,3.98,3.98,0,0,1,1.407,1.291,4.5,4.5,0,0,1,.43.859A6.7,6.7,0,0,1,187.56-754q.078.7.117,1.778t.038,2.717q0,1.368-.038,2.246t-.117,1.465a5.47,5.47,0,0,1-.293,1.056,7.185,7.185,0,0,1-.45.9,5.389,5.389,0,0,1-2.09,1.993,6.133,6.133,0,0,1-2.951.7,5.891,5.891,0,0,1-2.931-.723,5.671,5.671,0,0,1-2.072-1.974,5.2,5.2,0,0,1-.488-.9,4.208,4.208,0,0,1-.254-1.056,9.912,9.912,0,0,1-.156-1.465q-.039-.879-.039-2.246,0-1.291.039-2.131t.117-1.465a6.182,6.182,0,0,1,.235-1.075c.1-.325.22-.67.352-1.035l5.236-13.991Zm-2.54,16.922a1.887,1.887,0,0,0-.586-1.446,1.945,1.945,0,0,0-1.369-.547,1.938,1.938,0,0,0-1.367.547,1.885,1.885,0,0,0-.587,1.446v5.159a1.882,1.882,0,0,0,.587,1.446,1.934,1.934,0,0,0,1.367.547,1.941,1.941,0,0,0,1.369-.547,1.884,1.884,0,0,0,.586-1.446Z" transform="translate(-161.298 769.438)" fill="#fff"/><path d="M192.068-763.486a6.072,6.072,0,0,1,.488-2.5,5.861,5.861,0,0,1,1.309-1.876,5.62,5.62,0,0,1,1.9-1.192,6.253,6.253,0,0,1,2.247-.411,6.261,6.261,0,0,1,2.247.411,5.633,5.633,0,0,1,1.9,1.192,5.875,5.875,0,0,1,1.309,1.876,6.072,6.072,0,0,1,.489,2.5v16.336a6.069,6.069,0,0,1-.489,2.5,5.868,5.868,0,0,1-1.309,1.876,5.631,5.631,0,0,1-1.9,1.191,6.238,6.238,0,0,1-2.247.411,6.231,6.231,0,0,1-2.247-.411,5.618,5.618,0,0,1-1.9-1.191,5.855,5.855,0,0,1-1.309-1.876,6.069,6.069,0,0,1-.488-2.5Zm3.986,16.336a1.969,1.969,0,0,0,.547,1.427,1.87,1.87,0,0,0,1.407.566,1.871,1.871,0,0,0,1.406-.566,1.974,1.974,0,0,0,.548-1.427v-16.336a1.973,1.973,0,0,0-.548-1.426,1.872,1.872,0,0,0-1.406-.567,1.871,1.871,0,0,0-1.407.567,1.969,1.969,0,0,0-.547,1.426Z" transform="translate(-162.992 769.465)" fill="#fff"/></g></g></g><text transform="translate(153.786 28)" fill="#8ec53f" font-size="39" font-family="DINCondensed-Bold, DIN Condensed" font-weight="700"><tspan x="0" y="0">CSR</tspan></text></g></svg>