<svg xmlns="http://www.w3.org/2000/svg" width="197.662" height="27.36" viewBox="0 0 197.662 27.36"><g transform="translate(22029 22143)"><g transform="translate(-22029 -22143)"><g transform="translate(0 0)"><path d="M1966.456,1020.75a14.17,14.17,0,0,0-11.609,5.7l-9.545,11.81c-1.581,1.911-3.2,3.2-5.934,3.2-3.681,0-6.277-3.079-6.277-7.032v-.071c0-3.834,2.6-6.949,6.277-6.949a7.042,7.042,0,0,1,5.746,3.079l5.486-4.247a12.877,12.877,0,0,0-11.161-5.486,13.514,13.514,0,0,0-13.863,13.674v.071a13.848,13.848,0,0,0,25.213,7.669l2.253-3.079a13.828,13.828,0,0,0,13.344,9.026c8.117,0,14.2-6.123,14.2-13.674v-.071C1980.59,1026.8,1974.573,1020.75,1966.456,1020.75Zm6.689,13.757a6.712,6.712,0,0,1-6.689,7.032,6.823,6.823,0,0,1-6.725-7.1v-.071c0-3.8,2.666-7.032,6.654-7.032a6.829,6.829,0,0,1,6.76,7.1v.071Z" transform="translate(-1925.575 -1020.75)" fill="#fff"/><path d="M2423.975,1025.15h12.435c4.023,0,6.807,1.05,8.565,2.855a8.118,8.118,0,0,1,2.324,6.123v.071a8.327,8.327,0,0,1-5.416,8.082l6.277,9.167h-8.4l-5.3-7.964h-3.2v7.964h-7.291Zm12.1,12.636c2.478,0,3.905-1.2,3.905-3.115v-.071c0-2.065-1.5-3.115-3.941-3.115h-4.778v6.312h4.813Z" transform="translate(-2365.173 -1024.631)" fill="#fff"/><path d="M2653.075,1025.15h21.154v6.206h-13.946v3.988h12.624v5.746h-12.624v4.177h14.134v6.206h-21.343Z" transform="translate(-2567.243 -1024.631)" fill="#fff"/></g><g transform="translate(110.584 0.212)"><path d="M2874.225,1029.216v.637a5.4,5.4,0,0,1-3.492,5.451c2.371.72,3.492,2.749,3.492,5.333v2.029c0,3.834-1.652,6.654-5.675,6.654s-5.675-2.82-5.675-6.654v-1.5h1.652v1.581c0,2.855,1.085,5,3.988,5s3.988-2.1,3.988-5.109v-2.029c0-2.749-1.357-4.318-3.905-4.436h-1.77V1034.6h1.84c2.372-.153,3.834-1.876,3.834-4.4v-.944c0-3.008-1.086-5.109-3.988-5.109s-3.988,2.1-3.988,4.955v1.05h-1.652v-.944c0-3.834,1.652-6.654,5.675-6.654C2872.561,1022.574,2874.225,1025.393,2874.225,1029.216Z" transform="translate(-2862.875 -1022.55)" fill="#fff"/><path d="M2994.378,1029.286v.3h-1.652v-.413c0-2.82-1.085-4.849-3.988-4.849-2.973,0-4.129,2.1-4.129,5.191v6.088a5,5,0,0,1,4.7-2.407c3.681,0,5.191,2.749,5.191,6.43v3.233c0,3.834-1.77,6.654-5.793,6.654-4.058,0-5.828-2.82-5.828-6.654v-13.379c0-3.941,1.734-6.725,5.828-6.725C2992.726,1022.75,2994.378,1025.452,2994.378,1029.286Zm-9.769,10.441v3.2c0,2.891,1.168,4.955,4.094,4.955,2.891,0,4.059-2.065,4.059-4.955v-3.2c0-2.82-1.168-4.92-4.059-4.92C2985.777,1034.808,2984.609,1036.919,2984.609,1039.728Z" transform="translate(-2968.717 -1022.726)" fill="#fff"/><path d="M3110.368,1022.75c4.023,0,5.793,2.784,5.793,6.654v13.45c0,3.834-1.77,6.654-5.793,6.654s-5.793-2.82-5.793-6.654V1029.4C3104.575,1025.523,3106.344,1022.75,3110.368,1022.75Zm0,25.177c2.891,0,4.059-2.1,4.059-5v-13.639c0-2.855-1.168-4.955-4.059-4.955s-4.059,2.1-4.059,4.955v13.639C3106.309,1045.815,3107.465,1047.927,3110.368,1047.927Z" transform="translate(-3076.059 -1022.726)" fill="#fff"/></g><g transform="translate(153.867 0.236)"><path d="M3241.93,1041.784v1.626a5.863,5.863,0,0,1-.462,2.31,6.4,6.4,0,0,1-1.275,1.94,6.151,6.151,0,0,1-1.9,1.349,5.571,5.571,0,0,1-2.347.5,8.448,8.448,0,0,1-2.181-.3,5.15,5.15,0,0,1-2-1.035,5.716,5.716,0,0,1-1.46-1.9,6.731,6.731,0,0,1-.573-2.975v-14.488a6.415,6.415,0,0,1,.443-2.4,5.652,5.652,0,0,1,1.257-1.922,5.841,5.841,0,0,1,1.94-1.275,6.517,6.517,0,0,1,2.494-.462,5.718,5.718,0,0,1,4.325,1.737,6.191,6.191,0,0,1,1.275,2.014,6.811,6.811,0,0,1,.462,2.532v1.478h-3.77v-1.256a3.054,3.054,0,0,0-.628-1.922,2.038,2.038,0,0,0-1.7-.813,1.916,1.916,0,0,0-1.867.869,4.654,4.654,0,0,0-.461,2.2v13.453a3.485,3.485,0,0,0,.5,1.922,1.965,1.965,0,0,0,1.792.776,2.728,2.728,0,0,0,.794-.129,2.365,2.365,0,0,0,.795-.425,2.246,2.246,0,0,0,.554-.813,3.293,3.293,0,0,0,.222-1.294v-1.293Z" transform="translate(-3229.734 -1022.75)" fill="#8ec53f"/><path d="M3365.78,1030.548h-3.77v-.85a4.026,4.026,0,0,0-.61-2.236,2.256,2.256,0,0,0-2.051-.943,2.372,2.372,0,0,0-1.257.3,2.478,2.478,0,0,0-.776.739,3.114,3.114,0,0,0-.407,1.09,7.136,7.136,0,0,0-.111,1.275,12.453,12.453,0,0,0,.055,1.294,2.445,2.445,0,0,0,.277.924,2.047,2.047,0,0,0,.647.7,5.868,5.868,0,0,0,1.164.591l2.883,1.146a7.159,7.159,0,0,1,2.032,1.127,4.869,4.869,0,0,1,1.22,1.5,7.018,7.018,0,0,1,.554,2.014,20.012,20.012,0,0,1,.148,2.569,13.531,13.531,0,0,1-.333,3.086,6.51,6.51,0,0,1-1.072,2.421,5.319,5.319,0,0,1-2.033,1.626,7.175,7.175,0,0,1-3.068.592,6.724,6.724,0,0,1-2.55-.48,6.058,6.058,0,0,1-2.033-1.33,6.47,6.47,0,0,1-1.349-1.978,6,6,0,0,1-.5-2.458v-1.4h3.77v1.183a3.079,3.079,0,0,0,.61,1.866,2.376,2.376,0,0,0,2.051.832,3.31,3.31,0,0,0,1.5-.277,2,2,0,0,0,.832-.795,2.918,2.918,0,0,0,.351-1.238q.056-.721.056-1.608a16.055,16.055,0,0,0-.074-1.7,2.94,2.94,0,0,0-.3-1.072,2.085,2.085,0,0,0-.684-.665,8.892,8.892,0,0,0-1.127-.554l-2.7-1.109a5.976,5.976,0,0,1-3.271-2.643,9.087,9.087,0,0,1-.832-4.121,9.54,9.54,0,0,1,.407-2.809,6.386,6.386,0,0,1,1.219-2.291,5.6,5.6,0,0,1,1.977-1.534,6.6,6.6,0,0,1,2.864-.573,6.257,6.257,0,0,1,2.569.518,6.633,6.633,0,0,1,2.014,1.367,5.712,5.712,0,0,1,1.7,4.065Z" transform="translate(-3338.32 -1022.75)" fill="#8ec53f"/><path d="M3486.289,1050.945V1024.63h6.061q6.653,0,6.652,7.725a9.733,9.733,0,0,1-.721,3.954,5.585,5.585,0,0,1-2.531,2.624l4.065,12.011h-3.992l-3.511-11.235h-2.254v11.235Zm3.77-22.767v8.205h2.143a3.791,3.791,0,0,0,1.589-.277,2.162,2.162,0,0,0,.924-.794,3.615,3.615,0,0,0,.406-1.275,13.958,13.958,0,0,0,0-3.511,3.5,3.5,0,0,0-.444-1.312,3,3,0,0,0-2.661-1.035Z" transform="translate(-3456.02 -1024.408)" fill="#8ec53f"/></g></g></g></svg>