<svg xmlns="http://www.w3.org/2000/svg" width="34.037" height="22.826" viewBox="0 0 34.037 22.826"><path d="M-107.551-365.4a35.2,35.2,0,0,1-3.589-.093,24.9,24.9,0,0,1-4.351-.711c-.628-.175-.738-.3-.686-.948a6.424,6.424,0,0,1,1.246-3.4,3.721,3.721,0,0,1,1.468-1.022c1.11-.535,2.253-1,3.334-1.591.419-.23.418-.231.144-.6a3.619,3.619,0,0,1-.483-.942,3.406,3.406,0,0,0-.478-.87,3.2,3.2,0,0,1-.689-2.137.876.876,0,0,1,.2-.588.508.508,0,0,0,.1-.318c.065-.634.042-1.275.146-1.905a2.968,2.968,0,0,1,2.471-2.575,5.051,5.051,0,0,1,2.088-.005,3.11,3.11,0,0,1,2.521,2.86c.05.537.042,1.075.07,1.613a.526.526,0,0,0,.155.38.887.887,0,0,1,.169.723,3.227,3.227,0,0,1-.685,1.95,3.009,3.009,0,0,0-.466.828,3.485,3.485,0,0,1-.655,1.181c-.124.138-.047.206.072.276.536.32,1.1.582,1.665.847.685.322,1.371.643,2.063.951a3.617,3.617,0,0,1,1.946,2.031,7.374,7.374,0,0,1,.6,2.288v.021c.033.619-.077.779-.679.96a18.144,18.144,0,0,1-2.308.463A30.434,30.434,0,0,1-107.551-365.4Z" transform="translate(124.695 385.231)" fill="#fff"/><path d="M-119.508-360.086c.183.071.367.138.548.215a14.344,14.344,0,0,1,3.388,1.837,8.662,8.662,0,0,1,1.853,1.948,4.372,4.372,0,0,1-.286,5.207,10.213,10.213,0,0,1-3.624,2.787,22.425,22.425,0,0,1-5.5,1.78,35.206,35.206,0,0,1-9.176.586,29.066,29.066,0,0,1-8.586-1.722,12.969,12.969,0,0,1-4.041-2.3,5.976,5.976,0,0,1-1.783-2.345,4.374,4.374,0,0,1,.889-4.63,10.539,10.539,0,0,1,3.917-2.777c.456-.2.917-.391,1.376-.586l.025.05c-.19.119-.379.241-.572.357a10.683,10.683,0,0,0-2.138,1.635,6.018,6.018,0,0,0-1.685,3.951,3.194,3.194,0,0,0,1.417,2.8,12.313,12.313,0,0,0,4.039,2.12,27.059,27.059,0,0,0,6.124,1.246,34.49,34.49,0,0,0,5.689.076,26.291,26.291,0,0,0,8.09-1.7,9.861,9.861,0,0,0,3.063-1.795,9.174,9.174,0,0,0,.834-.877,2.89,2.89,0,0,0,.534-2.25,5.98,5.98,0,0,0-2.346-4.088,20.946,20.946,0,0,0-1.862-1.34c-.07-.047-.138-.1-.206-.146Z" transform="translate(147.029 368.477)" fill="#fff"/><path d="M-71.044-390.473a4.692,4.692,0,0,1,1,.1,2.749,2.749,0,0,1,2.177,2.5c0,.473.067.946.107,1.419a.612.612,0,0,0,.179.461.315.315,0,0,1,.077.236,3.035,3.035,0,0,1-.687,2.216,1.641,1.641,0,0,0-.273.5,4.077,4.077,0,0,1-.621,1.179c-.111.14-.073.2.058.269.8.45,1.649.816,2.486,1.2.232.105.459.224.7.316a3.34,3.34,0,0,1,1.919,2.013,7.821,7.821,0,0,1,.53,2,.563.563,0,0,1-.4.716,6.346,6.346,0,0,1-1.54.389,26.313,26.313,0,0,1-2.843.362.242.242,0,0,1-.294-.184,6.389,6.389,0,0,0-.346-.728,4.877,4.877,0,0,0-2.453-2.165c-.793-.359-1.59-.709-2.383-1.069-.335-.152-.351-.215-.2-.555.34-.748.789-1.441,1.124-2.192a2.89,2.89,0,0,0,.086-2.328,4.651,4.651,0,0,1-.209-1.573,3.82,3.82,0,0,0-1.183-2.733.3.3,0,0,1-.087-.385A2.915,2.915,0,0,1-71.044-390.473Z" transform="translate(94.26 390.484)" fill="#fff"/><path d="M-127.823-390.507a3.312,3.312,0,0,1,2.407.931,3.03,3.03,0,0,1,.608,1.014.448.448,0,0,1-.155.513,4.118,4.118,0,0,0-.788,1.151,4.364,4.364,0,0,0-.306,1.532,6.554,6.554,0,0,1-.337,1.913,2.319,2.319,0,0,0,.132,1.718,13.653,13.653,0,0,0,.823,1.676q.214.391.4.8c.13.277.1.354-.173.481-.683.311-1.37.612-2.056.916a9.332,9.332,0,0,0-1.492.809,4.8,4.8,0,0,0-1.634,2.154c-.092.212-.174.308-.438.285a28.075,28.075,0,0,1-3.755-.567,2.444,2.444,0,0,1-.654-.245.515.515,0,0,1-.287-.559,6.908,6.908,0,0,1,1-2.972,2.491,2.491,0,0,1,1.017-.907c.994-.515,2.036-.928,3.033-1.435.215-.109.423-.23.637-.34.1-.049.119-.093.046-.191a4.639,4.639,0,0,1-.711-1.392,1,1,0,0,0-.209-.318,3.088,3.088,0,0,1-.7-2.213c.006-.093,0-.2.085-.254a.555.555,0,0,0,.2-.529,8.2,8.2,0,0,1,.121-1.629,2.751,2.751,0,0,1,2.4-2.282A6.293,6.293,0,0,1-127.823-390.507Z" transform="translate(138.702 390.507)" fill="#fff"/></svg>