<svg xmlns="http://www.w3.org/2000/svg" width="16" height="20.545" viewBox="0 0 16 20.545"><path d="M2191.565-801.667h7.814c.162,0,.139-.007.139.137,0,.323,0,.646,0,.969a.19.19,0,0,1-.079.167c-.239.2-.474.4-.714.594a.211.211,0,0,0-.085.184q0,6.871,0,13.741a1.231,1.231,0,0,1-1.284,1.282h-11.612a1.228,1.228,0,0,1-1.278-1.276q0-6.856,0-13.712a.271.271,0,0,0-.113-.242c-.243-.192-.475-.4-.713-.595a.126.126,0,0,1-.052-.109c0-.353,0-.706,0-1.059,0-.067.027-.088.088-.083.03,0,.059,0,.089,0Zm-4.291,9.114q0,2.938,0,5.875c0,.095.025.124.121.122.412-.005.824,0,1.237,0,.153,0,.153,0,.153-.157v-11.532c0-.063,0-.126,0-.188.007-.08-.026-.1-.1-.1-.425,0-.851,0-1.276,0-.131,0-.131,0-.131.135Zm3.532,0q0,2.937,0,5.875c0,.094.025.124.121.123.425-.005.85,0,1.276,0,.079,0,.107-.019.107-.1q0-5.885,0-11.77c0-.082-.021-.106-.1-.1-.421,0-.844,0-1.265,0-.132,0-.132,0-.132.135Zm3.527,0v5.856c0,.136,0,.136.14.136h1.217c.142,0,.142,0,.142-.139v-5.322q0-3.2,0-6.39c0-.1-.025-.128-.126-.127-.416.006-.832,0-1.247,0-.128,0-.128,0-.128.127Z" transform="translate(-2183.558 805.137)" fill="#279ccb"/><path d="M2190.677-886.274h-7.844c-.176,0-.154.027-.155-.159,0-.254,0-.508,0-.762a.294.294,0,0,1,.286-.325,1.012,1.012,0,0,1,.138-.006h4.916c.15,0,.15,0,.15-.152q0-.515,0-1.029a.494.494,0,0,1,.524-.528q1.984,0,3.966,0a.5.5,0,0,1,.526.528c0,.349,0,.7,0,1.049,0,.131,0,.132.13.132h4.927a1.276,1.276,0,0,1,.177.011.282.282,0,0,1,.256.281c.005.3,0,.594,0,.89,0,.058-.026.075-.078.071-.036,0-.073,0-.109,0Zm0-1.549h.178c.445,0,.89,0,1.335,0,.078,0,.107-.024.1-.1s0-.165,0-.247a.158.158,0,0,0-.174-.163h-2.868a.158.158,0,0,0-.172.174c0,.076.006.152,0,.227s.024.111.111.111C2189.678-887.825,2190.176-887.823,2190.674-887.823Z" transform="translate(-2182.679 889.238)" fill="#279ccb"/></svg>