<svg xmlns="http://www.w3.org/2000/svg" width="134.804" height="35.968" viewBox="0 0 134.804 35.968">
  <g id="Group_3" data-name="Group 3" transform="translate(395.042 1251.48)">
    <g id="Group_1" data-name="Group 1" transform="translate(-395.042 -1251.48)">
      <path id="Path_3" data-name="Path 3" d="M207.414-1168.89c0-3.746.005-7.492-.009-11.238a.514.514,0,0,1,.4-.59,24.234,24.234,0,0,1,4.575-1.045,43.545,43.545,0,0,1,4.81-.361,11.207,11.207,0,0,1,4.689.73,7.53,7.53,0,0,1,1.9,1.127.31.31,0,0,0,.419.038,15.283,15.283,0,0,1,6.645-1.849,16.782,16.782,0,0,1,5.245.348,7.273,7.273,0,0,1,5.674,5.916,14.663,14.663,0,0,1,.328,3.176q-.013,7.5,0,15.009c0,.346-.087.437-.434.433-1.547-.02-3.094-.016-4.642,0-.294,0-.379-.072-.378-.374q.015-7.448.01-14.9a7.659,7.659,0,0,0-.183-1.756,3.215,3.215,0,0,0-3-2.686,11.845,11.845,0,0,0-5.458.588c-.293.106-.57.26-.855.389-.163.074-.2.168-.148.356a12.293,12.293,0,0,1,.432,3.536q-.022,7.2,0,14.406c0,.328-.06.446-.422.441q-2.264-.035-4.528,0c-.382.006-.442-.113-.441-.461.012-4.953.007-9.906.01-14.858a7.26,7.26,0,0,0-.25-1.9,3.169,3.169,0,0,0-2.707-2.444,14.733,14.733,0,0,0-4.654.106c-.434.062-.858.183-1.291.255-.248.041-.316.155-.314.4.012,1.333.006,2.665.006,4q0,7.241.007,14.481c0,.321-.061.425-.406.42-1.56-.021-3.12-.018-4.68,0-.307,0-.368-.094-.367-.38Q207.422-1163.233,207.414-1168.89Z" transform="translate(-116.4 1192.61)" fill="#fff"/>
      <path id="Path_4" data-name="Path 4" d="M-58.934-1178.823h.417c1.975,0,3.95,0,5.924-.006a.669.669,0,0,1,.6.29q4.445,5.8,8.909,11.593a.445.445,0,0,1,0,.661q-4.423,5.726-8.815,11.475a.97.97,0,0,1-.875.437c-1.9-.02-3.8-.008-5.7-.011a.746.746,0,0,1-.434-.054c.539-.7,1.068-1.4,1.6-2.092q3.79-4.929,7.586-9.854a.325.325,0,0,0-.013-.477q-3.163-4.1-6.318-8.214Z" transform="translate(109.706 1189.803)" fill="#fff"/>
      <path id="Path_5" data-name="Path 5" d="M139.031-1166.644q0,5.921.007,11.842c0,.312-.078.4-.393.394-1.572-.017-3.145-.013-4.718,0-.257,0-.341-.061-.341-.332q.011-11.9,0-23.8c0-.256.08-.311.32-.31,1.6.01,3.2.015,4.793,0,.307,0,.337.109.337.367Q139.025-1172.565,139.031-1166.644Z" transform="translate(-53.732 1189.824)" fill="#fff"/>
      <path id="Path_6" data-name="Path 6" d="M41.479-1076.2c-.955,0-1.911-.012-2.866.007a.747.747,0,0,1-.69-.331q-2.14-2.819-4.315-5.612a.448.448,0,0,1,.01-.668c.979-1.242,1.936-2.5,2.893-3.76.157-.207.241-.243.421-.007q3.856,5.039,7.727,10.066c.057.074.171.151.115.255s-.183.049-.278.049C43.49-1076.194,42.485-1076.2,41.479-1076.2Z" transform="translate(31.266 1111.617)" fill="#fff"/>
      <path id="Path_7" data-name="Path 7" d="M44.795-1178.788c-.567.743-1.1,1.44-1.631,2.134q-3.1,4.035-6.2,8.068c-.285.37-.284.373-.574,0-.942-1.224-1.878-2.454-2.831-3.67a.431.431,0,0,1-.008-.641c1.459-1.873,2.9-3.759,4.349-5.641.113-.146.208-.288.445-.286,2.088.011,4.176.007,6.265.008A1.754,1.754,0,0,1,44.795-1178.788Z" transform="translate(31.31 1189.804)" fill="#fff"/>
      <path id="Path_8" data-name="Path 8" d="M136.379-1248.157a3.311,3.311,0,0,1-3.3,3.282,3.267,3.267,0,0,1-3.323-3.324,3.265,3.265,0,0,1,3.327-3.282A3.306,3.306,0,0,1,136.379-1248.157Z" transform="translate(-50.485 1251.48)" fill="#fff"/>
      <path id="Path_9" data-name="Path 9" d="M-373.734-1227.639q0-8.145.008-16.29c0-.331-.078-.419-.413-.414-1.522.02-3.044.026-4.566,0-.4-.008-.461.122-.46.481.014,3.092.009,6.184,0,9.276,0,.109.134.361-.213.252a14.153,14.153,0,0,0-6.186-.475,9.916,9.916,0,0,0-8.658,7.177,18.048,18.048,0,0,0-.192,10.14,10.159,10.159,0,0,0,2.945,5.194,11.232,11.232,0,0,0,7.119,2.761,27.982,27.982,0,0,0,5.643-.228,21.72,21.72,0,0,0,4.57-1.066.527.527,0,0,0,.41-.592Q-373.744-1219.532-373.734-1227.639Zm-5.423,5.541c0,2.212-.005,4.423.007,6.634,0,.277-.074.392-.353.452a14.117,14.117,0,0,1-5.758.185,4.619,4.619,0,0,1-3.823-3.644,15.8,15.8,0,0,1-.047-7.5c.516-2.254,1.985-3.452,4.474-3.755a11.759,11.759,0,0,1,4.955.428.658.658,0,0,1,.561.754C-379.177-1226.4-379.157-1224.247-379.157-1222.1Z" transform="translate(395.042 1245.425)" fill="#fff"/>
      <path id="Path_10" data-name="Path 10" d="M-200.629-1175.338a8.942,8.942,0,0,0-6.311-6.312,15.185,15.185,0,0,0-6.757-.336,9.548,9.548,0,0,0-7.708,6.046,18.343,18.343,0,0,0-1.154,7.319,17.942,17.942,0,0,0,.732,4.736,9.02,9.02,0,0,0,6.155,6.516,14.959,14.959,0,0,0,7.486.34,9.384,9.384,0,0,0,7.086-5.649,15.347,15.347,0,0,0,1.231-5.472A19.926,19.926,0,0,0-200.629-1175.338Zm-4.647,5.718a14.776,14.776,0,0,1-.41,4.067,4.626,4.626,0,0,1-4.407,3.63,10.4,10.4,0,0,1-2.817-.1,4.568,4.568,0,0,1-3.778-3.724,16.3,16.3,0,0,1-.346-4.943,11.747,11.747,0,0,1,.482-3,4.6,4.6,0,0,1,4.231-3.3,9.961,9.961,0,0,1,2.966.1,4.548,4.548,0,0,1,3.747,3.79A14.389,14.389,0,0,1-205.275-1169.62Z" transform="translate(248.613 1192.678)" fill="#fff"/>
    </g>
    <g id="Group_2" data-name="Group 2" transform="translate(-265.371 -1240.078)">
      <path id="Path_11" data-name="Path 11" d="M465.935-1176a2.52,2.52,0,0,0-2.563,2.507,2.531,2.531,0,0,0,2.594,2.519,2.513,2.513,0,0,0,2.539-2.531A2.506,2.506,0,0,0,465.935-1176Zm.019,4.5a1.973,1.973,0,0,1-1.961-2,1.963,1.963,0,0,1,1.971-1.991,1.961,1.961,0,0,1,1.916,2.043A1.945,1.945,0,0,1,465.954-1171.5Z" transform="translate(-463.372 1175.998)" fill="#fff"/>
      <path id="Path_12" data-name="Path 12" d="M475.438-1166.468c.348-.174.584-.365.511-.747a.666.666,0,0,0-.634-.547,5.586,5.586,0,0,0-1.2.006c-.2.017-.234.121-.232.3.01.639.011,1.278,0,1.917,0,.223.025.335.3.333s.325-.1.3-.331a1.046,1.046,0,0,1,0-.3c.024-.133-.1-.342.1-.383a.547.547,0,0,1,.584.162.914.914,0,0,1,.123.309c.154.574.152.574.775.5C475.87-1165.656,475.983-1166.2,475.438-1166.468Zm-.662-.173c-.31.041-.32-.134-.288-.35-.025-.231-.03-.44.3-.4.257.028.543.043.536.385S475.031-1166.675,474.776-1166.642Z" transform="translate(-472.294 1169.033)" fill="#fff"/>
    </g>
  </g>
</svg>
