<svg id="Group_2794" data-name="Group 2794" xmlns="http://www.w3.org/2000/svg" width="22.273" height="23.206" viewBox="0 0 22.273 23.206">
  <path id="Path_13" data-name="Path 13" d="M330.962-1847.4q0-4.966,0-9.933c0-1.085.481-1.594,1.657-1.6q6.672-.032,13.344,0a1.466,1.466,0,0,1,1.681,1.606c.01,1.77.051,3.54.008,5.309-.016.661.215.837.894.8.955-.051,1.915-.028,2.872-.009,1.27.025,1.786.511,1.788,1.684q.01,6.123,0,12.246c0,1.1-.481,1.543-1.685,1.545q-9.405.01-18.811.009c-1.334,0-1.768-.4-1.77-1.639q-.008-5.009,0-10.019Zm2.775.081c0,2.767.01,5.535-.01,8.3,0,.483.078.719.694.717q7.641-.03,15.283-.006c.482,0,.721-.095.717-.614q-.035-4.493,0-8.987c0-.49-.17-.648-.69-.633-1.049.029-2.1.026-3.149,0-1.211-.025-1.729-.524-1.732-1.642-.006-1.769-.028-3.538.013-5.306.014-.6-.181-.776-.829-.771q-4.769.041-9.54,0c-.616-.006-.774.17-.768.721C333.752-1852.8,333.737-1850.059,333.737-1847.32Z" transform="translate(-330.938 1858.95)" fill="#3c94e3"/>
  <path id="Path_14" data-name="Path 14" d="M348.808-1819.1c1.6,0,3.2.014,4.806-.008.493-.007.743.079.677.608-.051.4.048.765-.64.759q-4.944-.043-9.889,0c-.681.005-.609-.349-.642-.761-.041-.512.2-.613.7-.606C345.48-1819.089,347.144-1819.1,348.808-1819.1Z" transform="translate(-337.566 1835.887)" fill="#3c94e3"/>
  <path id="Path_15" data-name="Path 15" d="M348.686-1826.961c-1.632,0-3.265-.03-4.9.015-.646.018-.658-.261-.68-.716-.024-.518.207-.609.7-.606,3.233.016,6.467.021,9.7,0,.607,0,.76.181.786.727.032.653-.365.585-.808.584C351.888-1826.964,350.287-1826.961,348.686-1826.961Z" transform="translate(-337.563 1841.188)" fill="#3c94e3"/>
  <path id="Path_16" data-name="Path 16" d="M345.917-1836.076c-.741,0-1.485-.025-2.225.008-.668.03-.533-.389-.561-.743-.032-.4.05-.631.587-.62q2.224.045,4.449,0c.579-.013.56.28.552.646s.072.753-.579.718C347.4-1836.107,346.658-1836.077,345.917-1836.076Z" transform="translate(-337.572 1846.492)" fill="#3c94e3"/>
  <path id="Path_17" data-name="Path 17" d="M345.912-1845.319c-.679,0-1.36-.022-2.037.007-.514.022-.778-.059-.781-.635s.236-.652.764-.641c1.388.03,2.778.028,4.167,0,.518-.009.7.143.691.634-.005.47-.133.669-.675.641C347.333-1845.347,346.622-1845.319,345.912-1845.319Z" transform="translate(-337.555 1851.794)" fill="#3c94e3"/>
</svg>
