<svg xmlns="http://www.w3.org/2000/svg" width="135.091" height="135.415" viewBox="0 0 135.091 135.415">
  <g id="Group_18525" data-name="Group 18525" transform="translate(-360.394 193.035)">
    <path id="Path_26564" data-name="Path 26564" d="M428.175-73.037c28.348,1.125,55.31-24.395,52-56.6a54.189,54.189,0,0,0-15.588-32.736c-2.3-2.354-3.293-3.6-.381-6.541,7.883-7.949,7.691-8.139,15.3.219,23.808,26.148,20.585,70.707-6.818,94.255-35.969,30.909-90.63,17.574-107.8-26.619-9.514-24.488-3.161-46.807,11.889-67.007,8.773-11.776,6.434-8.789,15.258-.9,2.669,2.386,1.877,3.771-.237,5.908a57.313,57.313,0,0,0-14.39,25.885C368.625-104.494,393.754-72.89,428.175-73.037Z" fill="#0098da"/>
    <path id="Path_26565" data-name="Path 26565" d="M435.441-154.721c0,10.655-.124,21.312.066,31.964.067,3.731-.85,5.427-4.963,5.325-12.142-.3-10.031,1.048-10.093-10.075-.112-19.978.1-39.958-.131-59.934-.052-4.509,1.443-5.709,5.737-5.585,10.986.316,9.277-.792,9.367,9.336C435.509-174.035,435.442-164.378,435.441-154.721Z" fill="#0098da"/>
  </g>
</svg>
