<svg xmlns="http://www.w3.org/2000/svg" width="21.597" height="21.979" viewBox="0 0 21.597 21.979"><defs><style>.a{fill:#fff;}</style></defs><g transform="translate(198.939 -212.4)"><path class="a" d="M-177.343,230.671v.368h-10.142a1.588,1.588,0,0,0-.2-.221l-1.424-1.424a2.07,2.07,0,0,0-1.473-.639,2.07,2.07,0,0,0-1.473.639l-.074.074-.295.295a7.75,7.75,0,0,1-1.744-1.645,3.26,3.26,0,0,1-.295-.393l.172-.172.147-.172c.049-.049.1-.123.147-.172a28.687,28.687,0,0,0,3.389-1.3,4.2,4.2,0,0,0,.368-1.154,6.025,6.025,0,0,1-1.056-2.652c-.221-.025-.54-.344-.86-1.523-.417-1.5-.025-1.817.344-1.817h.074a4.134,4.134,0,0,1-.1-2.431,4.765,4.765,0,0,1,1.228-2.186,6.872,6.872,0,0,1,1.13-.958,3.923,3.923,0,0,1,1.105-.565h0a4.57,4.57,0,0,1,1.007-.2,2.668,2.668,0,0,1,.442-.025,3.9,3.9,0,0,1,2.087.565,3.163,3.163,0,0,1,1.228,1.154s2.235.172,1.252,4.912h0c.295.1.516.516.172,1.768-.344,1.2-.663,1.523-.884,1.523a.355.355,0,0,1-.172-.049,5.85,5.85,0,0,1-.982,2.431,2.939,2.939,0,0,0,.442,1.3,28.758,28.758,0,0,0,4.519,1.547C-177.588,227.945-177.318,229.59-177.343,230.671Zm-12.009,3.094c.246-.27.54-.54.81-.81a.839.839,0,0,0,0-1.277l-1.4-1.4a.813.813,0,0,0-1.252,0l-.884.884a.19.19,0,0,1-.246.049c-.2-.1-.393-.2-.565-.295a8.916,8.916,0,0,1-2.186-1.989,5.117,5.117,0,0,1-.786-1.252c-.049-.1-.025-.147.049-.221.295-.295.589-.565.86-.86a.839.839,0,0,0,0-1.277l-.688-.688-.712-.712a.83.83,0,0,0-1.252,0l-.884.884a1.454,1.454,0,0,0-.442.958,3.971,3.971,0,0,0,.319,1.768,11.183,11.183,0,0,0,1.891,3.168,12.005,12.005,0,0,0,3.88,3.045,6.1,6.1,0,0,0,2.161.638A1.974,1.974,0,0,0-189.352,233.765Z"/></g></svg>