<svg xmlns="http://www.w3.org/2000/svg" width="22.996" height="11.209" viewBox="0 0 22.996 11.209"><defs><style>.a{fill:gray;}</style></defs><g transform="translate(-10.199 -30.6)"><g transform="translate(10.2 30.6)"><path class="a" d="M10.2,50Z" transform="translate(-10.2 -44.396)"/><path class="a" d="M21.755,41.809A15.177,15.177,0,0,0,33.2,36.2h0a15.27,15.27,0,0,0-11.44-5.6A15.124,15.124,0,0,0,10.2,36.2,15.079,15.079,0,0,0,21.755,41.809ZM21.7,31.871A4.333,4.333,0,1,1,17.364,36.2,4.327,4.327,0,0,1,21.7,31.871Z" transform="translate(-10.2 -30.6)"/><path class="a" d="M42.178,45.355a3.164,3.164,0,0,0,2.571-5.027.84.84,0,0,1-.838.693.851.851,0,0,1-.867-.867.841.841,0,0,1,.578-.809A3.048,3.048,0,0,0,42.178,39a3.178,3.178,0,0,0,0,6.355Z" transform="translate(-30.68 -36.573)"/></g></g></svg>