<svg xmlns="http://www.w3.org/2000/svg" width="20.459" height="20.3" viewBox="0 0 20.459 20.3"><defs><style>.a{fill:gray;}</style></defs><path class="a" d="M22.89,12.629V10.674a.855.855,0,0,0-.25-.637L18.253,5.65a1.015,1.015,0,0,0-.659-.25H8.5a.893.893,0,0,0-.887.909v6.32h-1.7A.937.937,0,0,0,5,13.584v8.411a.908.908,0,0,0,.909.887H7.591v1.91a.908.908,0,0,0,.887.909H21.936a.917.917,0,0,0,.932-.909v-1.91H24.55a.893.893,0,0,0,.909-.887V13.584a.922.922,0,0,0-.909-.955H22.89ZM9.433,23.79V17.9H21.072V23.79Zm0-11.162V7.241h7.229v3.433a.936.936,0,0,0,.932.932h3.478v1.046H9.433ZM22.89,16.175a.955.955,0,1,1,.932-.977.947.947,0,0,1-.932.977ZM10.8,18.948v1.364h8.82V18.948Zm0,2.205v1.341h8.82V21.154Z" transform="translate(-5 -5.4)"/></svg>