<svg xmlns="http://www.w3.org/2000/svg" width="23.874" height="28" viewBox="0 0 23.874 28"><defs><style>.a{fill:#06a8e0;}</style></defs><g transform="translate(0 0)"><path class="a" d="M26.86,13.729V9.574a2.416,2.416,0,0,0-.707-1.68L21.378,3.178A2.318,2.318,0,0,0,19.728,2.5H12.536A3.031,3.031,0,0,0,9.5,5.536V20.951a3.031,3.031,0,0,0,3.036,3.036h4.038A8.517,8.517,0,1,0,26.86,13.729ZM11.622,20.951V5.536a.918.918,0,0,1,.914-.914H19.05V8.631a1.711,1.711,0,0,0,1.71,1.709h4.008v3.154a8.532,8.532,0,0,0-8.43,8.371H12.506A.913.913,0,0,1,11.622,20.951Zm13.234,7.457a6.4,6.4,0,1,1,6.4-6.4A6.409,6.409,0,0,1,24.856,28.407Z" transform="translate(-9.5 -2.5)"/><path class="a" d="M47.861,59.14h4.126l-.707-.707a1.042,1.042,0,0,1,1.474-1.474l2.505,2.505a1.023,1.023,0,0,1,.295.737,1.1,1.1,0,0,1-.295.737l-2.505,2.505A1.042,1.042,0,0,1,51.28,61.97l.737-.707H47.861a1.061,1.061,0,1,1,0-2.122Z" transform="translate(-35.806 -40.69)"/></g></svg>