<svg xmlns="http://www.w3.org/2000/svg" width="28.114" height="27.134" viewBox="0 0 28.114 27.134"><g transform="translate(0 -8.93)"><g transform="translate(0 8.93)"><g transform="translate(0 0)"><path d="M236.151,15.7l-3.093-2.985,1.289-1.336a1.463,1.463,0,0,0,.164-1.87,1.418,1.418,0,0,0-2.165-.145L220.429,21.7l.67.651.7.675.675.651,5.3-5.492,3.088,2.98a.939.939,0,0,0,1.336-.023l.661-.684a.942.942,0,0,0-.023-1.336l-.347-.337,1.336-1.382.347.337a.941.941,0,0,0,.675.262.9.9,0,0,0,.661-.286l.665-.684A.946.946,0,0,0,236.151,15.7Zm-3.369.047L230.795,17.8a.45.45,0,0,1-.328.141h-.009a.457.457,0,0,1-.323-.131l-1.373-1.321a.472.472,0,0,1-.009-.665l1.987-2.057a.45.45,0,0,1,.328-.141.46.46,0,0,1,.333.131l1.368,1.321A.472.472,0,0,1,232.781,15.747Z" transform="translate(-208.324 -8.93)" fill="#fff"/><path d="M12.17,279.884l-.675-.651-.694-.67-.675-.651-.787.815a6.183,6.183,0,1,0,2.043,1.973Zm-2.91,7.132a4.248,4.248,0,0,1-3,1.3h-.08a4.272,4.272,0,1,1,3.083-1.3Zm.478-7.357a0,0,0,0,1,0,0h0A0,0,0,0,0,9.738,279.659ZM9.7,279.7a.127.127,0,0,0,.038-.033h0a.125.125,0,0,1-.038.033l0,0a.352.352,0,0,1-.07.042.439.439,0,0,1-.223.052.441.441,0,0,0,.223-.052.352.352,0,0,0,.07-.042h0Zm-7.569,1.042a5.238,5.238,0,0,1,7.016-1.023.354.354,0,0,0,.093.047h0a.351.351,0,0,1-.093-.047,5.238,5.238,0,0,0-8.189,4.407A5.222,5.222,0,0,1,2.127,280.739Zm9.3,3.387a5.22,5.22,0,0,0-1.025-3.2h0A5.22,5.22,0,0,1,11.429,284.126Z" transform="translate(0 -263.091)" fill="#fff"/><path d="M190.028,247.229l-1.345-1.3-.047-.047-.675-.651a.452.452,0,0,0-.333-.131.493.493,0,0,0-.333.145.475.475,0,0,0-.15.356.466.466,0,0,0,.141.328l.679.656.033.028,1.354,1.312.7.67a.467.467,0,0,0,.661-.009.481.481,0,0,0,.155-.356.45.45,0,0,0-.141-.328Z" transform="translate(-176.869 -232.132)" fill="#fff"/></g></g></g></svg>