<svg xmlns="http://www.w3.org/2000/svg" width="24.547" height="24.578" viewBox="0 0 24.547 24.578"><path d="M250.57-1439.094q-5.288,0-10.575,0a1.569,1.569,0,0,1-1.68-1.673q0-7.7,0-15.395c0-1.9,0-3.8,0-5.694a1.615,1.615,0,0,1,1.778-1.8c.251,0,.5.013.753,0,.208-.013.274.052.273.268-.008,2,0,4,0,6,0,.763,0,1.526,0,2.29a.9.9,0,0,0,.981.966q6.191,0,12.383,0c.8,0,1.607,0,2.41,0a.9.9,0,0,0,.986-.994c0-2.721.005-5.443-.007-8.165,0-.291.071-.388.365-.363.359.031.723,0,1.082.032a1.514,1.514,0,0,1,.943.488q1.044,1.044,2.088,2.087a1.746,1.746,0,0,1,.514,1.3q-.005,9.475,0,18.951a1.6,1.6,0,0,1-1.71,1.714H250.57Zm0-2.3h9.1c.381,0,.382,0,.382-.4q0-4.187,0-8.373a.993.993,0,0,0-1.125-1.128q-2.454-.005-4.909,0c-3.925,0-7.85.007-11.776-.006a1.062,1.062,0,0,0-1.141,1.128c.023,2.8.015,5.6,0,8.4,0,.3.068.383.376.381C244.505-1441.4,247.537-1441.395,250.569-1441.395Z" transform="translate(-238.309 1463.661)" fill="#fff"/><path d="M419.824-1459.523c0,1.164-.006,2.329,0,3.493,0,.237-.042.329-.307.328q-3.3-.015-6.594,0c-.245,0-.323-.06-.322-.316q.015-3.538,0-7.076c0-.249.083-.3.309-.3q3.3.009,6.594,0c.246,0,.324.065.321.318C419.816-1461.892,419.824-1460.708,419.824-1459.523Z" transform="translate(-402.081 1463.411)" fill="#fff"/><path d="M314.862-1459.5c0-1.185.006-2.37,0-3.555,0-.225.061-.293.287-.291q1.762.015,3.524,0c.209,0,.273.061.273.273q-.01,3.57,0,7.14c0,.245-.1.276-.3.274-1.165-.008-2.33-.01-3.494,0-.226,0-.29-.063-.289-.289C314.868-1457.128,314.862-1458.313,314.862-1459.5Z" transform="translate(-310.235 1463.363)" fill="#fff"/><path d="M323.5-1223.137q3.268,0,6.536,0a.949.949,0,0,1,1.034.934.962.962,0,0,1-1.046.926H316.984c-.766,0-1.236-.563-1.026-1.221a.925.925,0,0,1,.947-.641Z" transform="translate(-311.222 1237.66)" fill="#fff"/><path d="M323.5-1155.257c-2.178,0-4.357-.014-6.535.009a.981.981,0,0,1-1.048-.923.958.958,0,0,1,1.056-.948q6.535,0,13.07,0a.946.946,0,0,1,1,.7.935.935,0,0,1-.4,1.02,1.243,1.243,0,0,1-.726.141H323.5Z" transform="translate(-311.227 1175.629)" fill="#fff"/></svg>