<svg xmlns="http://www.w3.org/2000/svg" width="17.96" height="18" viewBox="0 0 17.96 18"><defs><style>.a{fill:gray;}</style></defs><g transform="translate(-11.1 -11)"><g transform="translate(11.1 11)"><path class="a" d="M28.754,27.154l-3.715-3.692A7.777,7.777,0,0,0,18.854,11a7.765,7.765,0,1,0,4.685,13.961l3.692,3.715a1.075,1.075,0,0,0,.738.323,1.034,1.034,0,0,0,.738-.323A1.048,1.048,0,0,0,28.754,27.154ZM13.246,18.777a5.631,5.631,0,1,1,5.608,5.608A5.624,5.624,0,0,1,13.246,18.777Z" transform="translate(-11.1 -11)"/></g></g></svg>