<svg xmlns="http://www.w3.org/2000/svg" width="26.579" height="20.673" viewBox="0 0 26.579 20.673"><path d="M244.161-1762.545c-4.056,3.813-8,7.523-11.947,11.229-1.066,1-1.059.985-2.139-.035-3.914-3.695-7.835-7.381-11.885-11.195Z" transform="translate(-218.106 1762.545)" fill="#3c94e3"/><path d="M218.207-1730.747c2.827-3.152,5.572-6.2,8.289-9.264.348-.393.536-.192.8.024,1.062.88,2.152,1.73,3.179,2.65.513.46.782.544,1.319-.044,1.06-1.161,2.259-2.195,3.423-3.3a2.778,2.778,0,0,1,.251.239q4.3,4.8,8.607,9.622C243.329-1730.61,219.974-1730.532,218.207-1730.747Z" transform="translate(-218.115 1751.292)" fill="#3c94e3"/><path d="M265.3-1741.8c-2.364-2.938-4.615-5.748-6.886-8.542-.324-.4-.138-.623.129-.909,2.217-2.373,4.427-4.752,6.757-7.257Z" transform="translate(-238.724 1760.465)" fill="#3c94e3"/><path d="M218.131-1741.769c-.181-1.686-.132-15.758.052-16.592,2.281,2.457,4.527,4.883,6.784,7.3a.544.544,0,0,1,.029.844C222.739-1747.453,220.492-1744.679,218.131-1741.769Z" transform="translate(-218.018 1760.392)" fill="#3c94e3"/></svg>