<svg xmlns="http://www.w3.org/2000/svg" width="25.061" height="25.058" viewBox="0 0 25.061 25.058">
  <g id="_2A6H3z.tif" data-name="2A6H3z.tif" transform="translate(0)">
    <g id="Group_2735" data-name="Group 2735">
      <path id="Path_42" data-name="Path 42" d="M-1405.131-181.371a12.53,12.53,0,0,1-12.776-12.244,12.513,12.513,0,0,1,12.256-12.809,12.489,12.489,0,0,1,12.8,12.312A12.509,12.509,0,0,1-1405.131-181.371Zm-.256-8.429h0c.416,0,.833-.013,1.249.005.216.009.27-.066.256-.267a2.035,2.035,0,0,1,.032-.546,3.163,3.163,0,0,1,1.434-1.988,5.275,5.275,0,0,0,2.362-5.559,5.4,5.4,0,0,0-6.189-4.349,5.424,5.424,0,0,0-4.566,5.148c-.006.142.013.211.181.21q1.311-.01,2.622,0c.145,0,.176-.051.184-.187a2.5,2.5,0,0,1,2.607-2.318,2.413,2.413,0,0,1,2.29,2.03,2.5,2.5,0,0,1-1.2,2.6,5.732,5.732,0,0,0-2.756,4.992c0,.194.058.237.239.231C-1406.22-189.809-1405.8-189.8-1405.387-189.8Zm-1.847,2.716a1.848,1.848,0,0,0,1.865,1.871,1.855,1.855,0,0,0,1.846-1.841,1.886,1.886,0,0,0-1.859-1.889A1.845,1.845,0,0,0-1407.234-187.084Z" transform="translate(1417.912 206.427)" fill="#fff"/>
    </g>
  </g>
</svg>
