<svg xmlns="http://www.w3.org/2000/svg" width="24.149" height="24.229" viewBox="0 0 24.149 24.229">
  <g id="_3s7EBd.tif" data-name="3s7EBd.tif" transform="translate(1525.548 806.815)">
    <g id="Group_2736" data-name="Group 2736" transform="translate(-1525.548 -806.815)">
      <path id="Path_43" data-name="Path 43" d="M-1403.485-805.7a13.241,13.241,0,0,0-.127,1.924c-.13,2.282-.226,4.565-.333,6.849-.034.735-.062,1.471-.094,2.206,0,.085.019.178-.046.256-.135-.035-.2-.148-.283-.231-1.17-1.167-2.343-2.331-3.5-3.509-.19-.193-.286-.173-.464.007q-4.089,4.106-8.186,8.2c-.206.208-.316.236-.537.01q-1.65-1.689-3.338-3.34c-.2-.194-.2-.293,0-.492q4.1-4.075,8.181-8.161c.22-.219.254-.331.012-.566-1.151-1.122-2.281-2.266-3.416-3.405a.554.554,0,0,1-.214-.283l2.939-.131q3.676-.165,7.352-.332a4.258,4.258,0,0,0,1.123-.076c.308,0,.751-.121.887.032.158.178.046.6.051.908C-1403.484-805.785-1403.485-805.741-1403.485-805.7Z" transform="translate(1427.601 806.815)" fill="#fff"/>
      <path id="Path_44" data-name="Path 44" d="M-1514.515-796.974h-6.634a1.19,1.19,0,0,0-1.253,1.263q0,7.486,0,14.972a1.179,1.179,0,0,0,1.281,1.262h15.14a1.159,1.159,0,0,0,1.272-1.26q0-3.182,0-6.364v-.443c.368.3.682.56.994.819.66.55,1.316,1.106,1.981,1.65a.46.46,0,0,1,.188.4c0,2.278,0,4.555-.006,6.833a1.512,1.512,0,0,1-1.517,1.508q-10.484,0-20.968,0a1.516,1.516,0,0,1-1.511-1.513q0-10.367,0-20.734a1.519,1.519,0,0,1,1.575-1.521c1.373-.015,2.746,0,4.12,0,.781,0,1.563,0,2.344,0a.454.454,0,0,1,.384.147q1.265,1.428,2.538,2.849A.844.844,0,0,1-1514.515-796.974Z" transform="translate(1525.548 800.564)" fill="#fff"/>
    </g>
  </g>
</svg>
