<svg xmlns="http://www.w3.org/2000/svg" width="28.781" height="23.331" viewBox="0 0 28.781 23.331">
  <g id="Ky6Xem.tif" transform="translate(409.97 2736.728)">
    <g id="Group_8" data-name="Group 8" transform="translate(-409.97 -2736.728)">
      <path id="Path_22" data-name="Path 22" d="M-386.716-2733.966v13.5c.005.088.014.176.015.264q.006,1.849.01,3.7a.671.671,0,0,0,.518.628,4.162,4.162,0,0,0,1.146.063c.2-.022.2-.019.2-.223q0-8.222-.015-16.442a1.329,1.329,0,0,1,.267-.789,2.865,2.865,0,0,1,.307-.33.716.716,0,0,1,.424-.205,8.229,8.229,0,0,1,1.12-.078c.934-.018,1.869-.03,2.8-.03q9.171,0,18.343,0c.038,0,.076,0,.114,0,.064.005.082-.024.08-.082a9.638,9.638,0,0,0-.031-1.1.627.627,0,0,0-.48-.575,2.822,2.822,0,0,0-.354-.029c-.754-.011-1.508-.028-2.262-.028q-9.292,0-18.584.014-1.522,0-3.045.008c-.051,0-.1-.013-.149.027a.953.953,0,0,0-.4.749A6.6,6.6,0,0,1-386.716-2733.966Z" transform="translate(386.716 2735.728)" fill="#fff"/>
      <path id="Path_23" data-name="Path 23" d="M-396.2-2694.068q3.294,0,6.589,0,2.626,0,5.251-.012a.6.6,0,0,0,.647-.586,18.243,18.243,0,0,0,.073-1.958q.029-7.57,0-15.141c0-.5-.02-1.008-.03-1.512a.731.731,0,0,0-.745-.69c-.579-.008-1.158-.006-1.736-.011-4.117-.031-8.235-.025-12.353-.02q-4.5.006-8.994.035a7.385,7.385,0,0,0-.923.041.616.616,0,0,0-.482.47,6.763,6.763,0,0,0-.048.964q-.014,2.668-.014,5.336,0,5.609.007,11.219a11.786,11.786,0,0,0,.052,1.343c.037.315.155.423.471.451.941.085,1.885.079,2.829.081q4.7.007,9.407,0Zm.3-9.934c0-1.881,0-3.763-.005-5.644a.671.671,0,0,1,.213-.544.263.263,0,0,1,.2-.084c3.121.013,6.242-.022,9.364.024.268,0,.309.041.338.3a9.677,9.677,0,0,1,.056,1.076c0,2.47.011,4.939.009,7.409,0,1.106.02,2.213-.036,3.318-.013.259-.074.32-.328.34-.677.051-1.356.032-2.034.034-2.448.008-4.9.006-7.343.007a.479.479,0,0,1-.429-.425Zm-6.654,3.95h2.091c.616,0,1.232.005,1.847.055a.717.717,0,0,1,.734.732.754.754,0,0,1-.712.815c-.3.012-.6.039-.894.041q-2.4.01-4.808.01c-.668,0-1.336,0-2-.053a.7.7,0,0,1-.657-.475.756.756,0,0,1,.175-.854.929.929,0,0,1,.657-.245C-404.933-2700.056-403.743-2700.052-402.553-2700.052Zm.12-6.359c1.243.009,2.485-.012,3.728.027a.8.8,0,0,1,.663.281.759.759,0,0,1,.1.792.658.658,0,0,1-.583.446c-.269.029-.538.048-.808.05-.574,0-1.148.01-1.722.006-1.736-.011-3.472.029-5.208-.031a.7.7,0,0,1-.686-.473.776.776,0,0,1,.17-.868.818.818,0,0,1,.629-.2C-404.909-2706.425-403.671-2706.4-402.433-2706.411Zm-.217-3.19c1.452-.012,2.69,0,3.928.026a.865.865,0,0,1,.4.051.81.81,0,0,1,.314,1.146.8.8,0,0,1-.744.345c-1.536.046-3.073.02-4.61.025-.944,0-1.888.007-2.831-.025a.75.75,0,0,1-.706-.356.81.81,0,0,1-.052-.74.661.661,0,0,1,.6-.445c.2-.012.407-.025.611-.026C-404.636-2709.6-403.536-2709.6-402.65-2709.6Zm.218,6.412v-.012c.507,0,1.015-.006,1.522,0,.787.012,1.574-.005,2.361.031a.722.722,0,0,1,.675.726.8.8,0,0,1-.663.793c-.16.015-.321.026-.482.029-1.854.035-3.708.024-5.562.018-.564,0-1.129.01-1.691-.042a.758.758,0,0,1-.728-.894.715.715,0,0,1,.6-.622c.184-.015.369-.028.554-.029Q-404.139-2703.192-402.432-2703.189Z" transform="translate(412.409 2717.388)" fill="#fff"/>
      <path id="Path_24" data-name="Path 24" d="M-368.28-2667.338a3.814,3.814,0,0,0-.975.126,1.938,1.938,0,0,0-1.349,1.175,3.431,3.431,0,0,0-.22,1.258,1.666,1.666,0,0,1-.172.752,1.2,1.2,0,0,0-.049.835,2.1,2.1,0,0,0,.368.883,5.247,5.247,0,0,1,.521.891,2.166,2.166,0,0,0,1.526,1.241,1.578,1.578,0,0,0,1.226-.24,2.318,2.318,0,0,0,.9-.972,10.085,10.085,0,0,1,.6-1.055,1.982,1.982,0,0,0,.319-1.4.4.4,0,0,0-.07-.195.736.736,0,0,1-.133-.474,4.374,4.374,0,0,0-.147-1.2,2.051,2.051,0,0,0-1.729-1.562A2.967,2.967,0,0,0-368.28-2667.338Z" transform="translate(389.972 2676.013)" fill="#fff"/>
      <path id="Path_25" data-name="Path 25" d="M-379.525-2606.583c.911,0,2.274,0,3.637,0,.125,0,.154-.032.152-.154q-.022-1.26-.028-2.52a.155.155,0,0,0-.1-.158c-.663-.34-1.359-.607-2.044-.9a.127.127,0,0,0-.166.043,3.635,3.635,0,0,1-.854.739,2.123,2.123,0,0,1-2.545-.318c-.143-.134-.277-.277-.41-.421a.128.128,0,0,0-.166-.044c-.693.272-1.377.566-2.048.889-.057.028-.1.052-.1.13-.011.821-.029,1.642-.041,2.464,0,.187,0,.185.189.191C-382.694-2606.593-381.335-2606.627-379.525-2606.583Z" transform="translate(401.714 2625.462)" fill="#fff"/>
    </g>
  </g>
</svg>
