<svg xmlns="http://www.w3.org/2000/svg" viewBox="0 0 1826.72 361.9"><defs><style>.cls-1{fill:#fff;}</style></defs><g id="Layer_2" data-name="Layer 2"><g id="Layer_1-2" data-name="Layer 1"><path class="cls-1" d="M540.74,0C475.67,0,420.58,29.65,387.18,75.38L260.93,231.59c-20.91,25.28-42.29,42.29-78.5,42.29-48.69,0-83-40.73-83-93v-.93c0-50.72,34.33-91.92,83-91.92,33.24,0,56.18,15.92,76,40.73L331,72.57C300.26,29.81,254.38,0,183.37,0,78,0,0,79.59,0,180.87v.94C0,285.74,80.06,361.74,179.47,361.74c77.09,0,121.26-33.24,154-78.49l29.8-40.73c24.82,69.75,92.08,119.38,176.51,119.38,107.37,0,187.89-81,187.89-180.87v-.94C727.7,80.06,648.11,0,540.74,0Zm88.49,182c0,50.26-35.27,93-88.49,93-52.74,0-88.95-43.7-88.95-94v-.94c0-50.25,35.27-93,88-93,53.21,0,89.42,43.7,89.42,94Z"/><path class="cls-1" d="M1014.69,233.46c43.23-18.41,71.64-53.68,71.64-106.9v-.93c0-34.34-10.3-61.18-30.75-81C1032.33,20.76,995.5,6.87,942.28,6.87H777.8V354.72h96.44V249.38h42.29L986.6,354.72h111.12ZM989.57,132.81c0,25.28-18.88,41.2-51.66,41.2v.15H874.24V90.67h63.21c32.3,0,52.12,13.89,52.12,41.2Z"/><polygon class="cls-1" points="1230.68 272.95 1417.64 272.95 1417.64 355.03 1135.33 355.03 1135.33 6.87 1415.14 6.87 1415.14 88.95 1230.68 88.95 1230.68 141.7 1397.66 141.7 1397.66 217.7 1230.68 217.7 1230.68 272.95"/><path class="cls-1" d="M1564.8,67.59v5.8c0,23.65-11.28,42.46-31.81,49.66,21.6,6.55,31.81,25,31.81,48.58v18.48c0,34.93-15,60.62-51.69,60.62s-51.7-25.69-51.7-60.62V176.46h15v14.41c0,26,9.89,45.56,36.33,45.56s36.32-19.13,36.32-46.53V171.41c0-25-12.36-39.33-35.57-40.41h-16.12V116.6h16.76c21.61-1.4,34.93-17.09,34.93-40.09v-8.6c0-27.4-9.88-46.53-36.32-46.53s-36.33,19.13-36.33,45.14v9.56h-15v-8.6c0-34.93,15-60.61,51.7-60.61C1549.65,7.08,1564.8,32.77,1564.8,67.59Z"/><path class="cls-1" d="M1695.17,66.62v2.69h-15V65.55c0-25.69-9.89-44.17-36.33-44.17-27.08,0-37.62,19.13-37.62,47.29v55.45c7.85-13.32,21.18-21.92,42.78-21.92,33.53,0,47.29,25,47.29,58.57v29.45c0,34.93-16.12,60.62-52.77,60.62-37,0-53.1-25.69-53.1-60.62V68.34c0-35.89,15.8-61.26,53.1-61.26C1680.13,7.08,1695.17,31.69,1695.17,66.62Zm-89,95.12v29.13c0,26.33,10.64,45.13,37.3,45.13,26.33,0,37-18.8,37-45.13V161.74c0-25.69-10.64-44.82-37-44.82C1616.82,116.92,1606.18,136.16,1606.18,161.74Z"/><path class="cls-1" d="M1774,7.08c36.65,0,52.77,25.37,52.77,60.62V190.22c0,34.93-16.12,60.62-52.77,60.62s-52.77-25.69-52.77-60.62V67.7C1721.18,32.34,1737.3,7.08,1774,7.08Zm0,229.35c26.33,0,37-19.13,37-45.56V66.62c0-26-10.64-45.14-37-45.14s-37,19.13-37,45.14V190.87C1737,217.2,1747.51,236.43,1774,236.43Z"/><path class="cls-1" d="M1503.92,330v5.28a19,19,0,0,1-1.5,7.5,20.75,20.75,0,0,1-4.14,6.3,20,20,0,0,1-6.18,4.38,18.09,18.09,0,0,1-7.62,1.62,27.4,27.4,0,0,1-7.08-1,16.75,16.75,0,0,1-6.48-3.36,18.58,18.58,0,0,1-4.74-6.18,21.89,21.89,0,0,1-1.85-9.66v-47a20.81,20.81,0,0,1,1.43-7.8,18.36,18.36,0,0,1,4.08-6.24,19.28,19.28,0,0,1,6.3-4.14,21.17,21.17,0,0,1,8.1-1.5q8.64,0,14,5.64a20,20,0,0,1,4.14,6.54,22.12,22.12,0,0,1,1.5,8.22v4.8h-12.24v-4.08a9.91,9.91,0,0,0-2-6.24,6.61,6.61,0,0,0-5.52-2.64q-4.56,0-6.06,2.82a15.11,15.11,0,0,0-1.5,7.14V334a11.23,11.23,0,0,0,1.63,6.24q1.61,2.52,5.81,2.52a8.89,8.89,0,0,0,2.58-.42,7.7,7.7,0,0,0,2.58-1.38,7.32,7.32,0,0,0,1.8-2.64,10.7,10.7,0,0,0,.72-4.2V330Z"/><path class="cls-1" d="M1553.48,293.48h-12.24v-2.76a13.07,13.07,0,0,0-2-7.26q-2-3.06-6.66-3.06a7.7,7.7,0,0,0-4.08,1,8,8,0,0,0-2.52,2.4,10.15,10.15,0,0,0-1.32,3.54,23.11,23.11,0,0,0-.36,4.14,40.57,40.57,0,0,0,.18,4.2,8,8,0,0,0,.9,3,6.67,6.67,0,0,0,2.1,2.28,18.76,18.76,0,0,0,3.78,1.92l9.36,3.72a23.21,23.21,0,0,1,6.6,3.66,15.82,15.82,0,0,1,4,4.86,22.72,22.72,0,0,1,1.8,6.54,64.72,64.72,0,0,1,.48,8.34,44,44,0,0,1-1.08,10,21.11,21.11,0,0,1-3.48,7.86,17.27,17.27,0,0,1-6.6,5.28,23.28,23.28,0,0,1-10,1.92,21.79,21.79,0,0,1-8.28-1.56,19.69,19.69,0,0,1-6.6-4.32,21,21,0,0,1-4.38-6.42,19.49,19.49,0,0,1-1.62-8V330.2h12.24V334a10,10,0,0,0,2,6.06q2,2.7,6.66,2.7a10.74,10.74,0,0,0,4.86-.9,6.46,6.46,0,0,0,2.7-2.58,9.48,9.48,0,0,0,1.14-4q.18-2.34.18-5.22a51.72,51.72,0,0,0-.24-5.52,9.5,9.5,0,0,0-1-3.48,6.75,6.75,0,0,0-2.22-2.16,28.45,28.45,0,0,0-3.66-1.8l-8.76-3.6q-7.92-3.24-10.62-8.58c-1.8-3.55-2.7-8-2.7-13.38a31,31,0,0,1,1.32-9.12,20.74,20.74,0,0,1,4-7.44,18.26,18.26,0,0,1,6.42-5,21.43,21.43,0,0,1,9.3-1.86,20.31,20.31,0,0,1,8.34,1.68,21.48,21.48,0,0,1,6.54,4.44,18.54,18.54,0,0,1,5.52,13.2Z"/><path class="cls-1" d="M1562.6,354.32V268.88h19.68q21.6,0,21.6,25.08a31.61,31.61,0,0,1-2.34,12.84,18.15,18.15,0,0,1-8.22,8.52l13.2,39h-13l-11.4-36.48h-7.32v36.48Zm12.24-73.92V307h7a12.32,12.32,0,0,0,5.16-.9,7,7,0,0,0,3-2.58,11.73,11.73,0,0,0,1.32-4.14,45.31,45.31,0,0,0,0-11.4,11.41,11.41,0,0,0-1.44-4.26c-1.52-2.23-4.4-3.36-8.64-3.36Z"/></g></g></svg>