<svg xmlns="http://www.w3.org/2000/svg" width="24.594" height="24.594" viewBox="0 0 24.594 24.594"><defs><style>.a{fill:#3c94e3;}</style></defs><g transform="translate(-4 -4)"><path class="a" d="M25.52,4H10.149A3.074,3.074,0,0,0,7.074,7.074v3.074H4.769a.769.769,0,0,0,0,1.537H7.074v3.843H4.769a.769.769,0,0,0,0,1.537H7.074v3.843H4.769a.769.769,0,1,0,0,1.537H7.074V25.52a3.074,3.074,0,0,0,3.074,3.074H25.52a3.074,3.074,0,0,0,3.074-3.074V7.074A3.074,3.074,0,0,0,25.52,4Zm-7.686,6.149a2.306,2.306,0,1,1-2.306,2.306A2.306,2.306,0,0,1,17.834,10.149Zm6.149,12.3a1.537,1.537,0,0,1-1.537,1.537H13.223a1.537,1.537,0,0,1-1.537-1.537V20.908a3.074,3.074,0,0,1,3.074-3.074h6.149a3.074,3.074,0,0,1,3.074,3.074Z"/></g></svg>