<?xml version="1.0" encoding="iso-8859-1"?>
<!-- Generator: Adobe Illustrator 19.0.0, SVG Export Plug-In . SVG Version: 6.00 Build 0)  -->
<svg version="1.1" id="Capa_1" xmlns="http://www.w3.org/2000/svg" xmlns:xlink="http://www.w3.org/1999/xlink" x="0px" y="0px"
	 viewBox="0 0 368 368" style="enable-background:new 0 0 368 368;" xml:space="preserve">
<rect x="168" y="56" style="fill:#CCE4FF;" width="64" height="304"/>
<path style="fill:#007AFF;" d="M360,352h-8V184c0-4.416-3.576-8-8-8h-64c-4.424,0-8,3.584-8,8v168h-32V56c0-4.416-3.576-8-8-8h-64
	c-4.424,0-8,3.584-8,8v296h-32V248c0-4.416-3.576-8-8-8H56c-4.424,0-8,3.584-8,8v104H16V8c0-4.416-3.576-8-8-8S0,3.584,0,8v352
	c0,4.416,3.576,8,8,8h48h64h48h64h48h64h16c4.424,0,8-3.584,8-8S364.424,352,360,352z M64,256h48v96H64V256z M176,64h48v288h-48V64z
	 M288,192h48v160h-48V192z"/>
<g>
</g>
<g>
</g>
<g>
</g>
<g>
</g>
<g>
</g>
<g>
</g>
<g>
</g>
<g>
</g>
<g>
</g>
<g>
</g>
<g>
</g>
<g>
</g>
<g>
</g>
<g>
</g>
<g>
</g>
</svg>
