<svg xmlns="http://www.w3.org/2000/svg" width="23.558" height="23.558" viewBox="0 0 23.558 23.558"><defs><style>.a{fill:#fff;}</style></defs><g transform="translate(-4 -4)"><path class="a" d="M24.614,4H9.89A2.945,2.945,0,0,0,6.945,6.945V9.89H4.736a.736.736,0,1,0,0,1.472H6.945v3.681H4.736a.736.736,0,0,0,0,1.472H6.945V20.2H4.736a.736.736,0,1,0,0,1.472H6.945v2.945A2.945,2.945,0,0,0,9.89,27.558H24.614a2.945,2.945,0,0,0,2.945-2.945V6.945A2.945,2.945,0,0,0,24.614,4ZM17.252,9.89A2.209,2.209,0,1,1,15.043,12.1,2.209,2.209,0,0,1,17.252,9.89Zm5.89,11.779a1.472,1.472,0,0,1-1.472,1.472H12.834a1.472,1.472,0,0,1-1.472-1.472V20.2a2.945,2.945,0,0,1,2.945-2.945H20.2A2.945,2.945,0,0,1,23.141,20.2Z"/></g></svg>