<?xml version="1.0" encoding="utf-8"?>
<!-- Generator: Adobe Illustrator 24.1.3, SVG Export Plug-In . SVG Version: 6.00 Build 0)  -->
<svg version="1.1" id="Layer_1" xmlns="http://www.w3.org/2000/svg" xmlns:xlink="http://www.w3.org/1999/xlink" x="0px" y="0px"
	 viewBox="0 0 1352.7 296.5" style="enable-background:new 0 0 1352.7 296.5;" xml:space="preserve">
<style type="text/css">
	.st0{fill:#FFFFFF;}
</style>
<g>
	<path class="st0" d="M414.7,15.6c-48.3,0-89.3,22-114.1,56l-93.8,116.2c-15.5,18.8-31.4,31.4-58.3,31.4
		c-36.2,0-61.7-30.3-61.7-69.1v-0.7c0-37.7,25.5-68.3,61.7-68.3c24.7,0,41.7,11.8,56.5,30.3l53.9-41.7
		C236.1,37.9,202,15.7,149.2,15.7C71,15.7,13,74.9,13,150.1v0.7c0,77.2,59.5,133.7,133.3,133.7c57.3,0,90.1-24.7,114.4-58.3
		l22.1-30.3c18.4,51.8,68.4,88.7,131.1,88.7c79.8,0,139.6-60.2,139.6-134.4v-0.7C553.5,75.1,494.5,15.6,414.7,15.6z M480.4,150.8
		c0,37.3-26.2,69.1-65.7,69.1c-39.2,0-66.1-32.5-66.1-69.8v-0.7c0-37.3,26.2-69.1,65.4-69.1c39.5,0,66.4,32.5,66.4,69.8L480.4,150.8
		L480.4,150.8z"/>
	<path class="st0" d="M590.8,20.7H713c39.5,0,66.9,10.3,84.2,28.1c15.2,14.7,22.8,34.7,22.8,60.2v0.7c0,39.5-21.1,65.7-53.2,79.4
		l61.7,90.1h-82.5l-52.1-78.3h-0.7h-30.7v78.3h-71.6V20.7z M709.7,144.9c24.3,0,38.4-11.8,38.4-30.6v-0.7
		c0-20.3-14.7-30.6-38.7-30.6h-47v62h47.3V144.9z"/>
	<path class="st0" d="M856.3,20.7h207.9v61H927.2v39.2h124v56.5h-124v41h138.9v61H856.3V20.7z"/>
</g>
<g>
	<path class="st0" d="M1167.1,57.4v3.8c0,15.5-7.4,27.8-20.8,32.5c14.1,4.3,20.8,16.4,20.8,31.8v12.1c0,22.9-9.8,39.7-33.8,39.7
		s-33.8-16.8-33.8-39.7v-8.9h9.8v9.4c0,17,6.5,29.8,23.8,29.8c17.2,0,23.8-12.5,23.8-30.4v-12.1c0-16.4-8.1-25.7-23.3-26.4H1123
		v-9.4h11c14.1-0.9,22.9-11.2,22.9-26.2v-5.6c0-17.9-6.5-30.4-23.8-30.4c-17.2,0-23.8,12.5-23.8,29.5V63h-9.8v-5.6
		c0-22.9,9.8-39.7,33.8-39.7C1157.3,17.9,1167.1,34.7,1167.1,57.4z"/>
	<path class="st0" d="M1252.5,56.8v1.8h-9.8v-2.5c0-16.8-6.5-28.9-23.8-28.9c-17.7,0-24.6,12.5-24.6,30.9v36.3
		c5.1-8.7,13.9-14.3,28-14.3c21.9,0,30.9,16.4,30.9,38.3v19.3c0,22.9-10.5,39.7-34.5,39.7c-24.2,0-34.7-16.8-34.7-39.7V57.9
		c0-23.5,10.3-40.1,34.7-40.1C1242.7,17.9,1252.5,34,1252.5,56.8z M1194.3,119v19.1c0,17.2,7,29.5,24.4,29.5
		c17.2,0,24.2-12.3,24.2-29.5V119c0-16.8-7-29.3-24.2-29.3C1201.2,89.7,1194.3,102.3,1194.3,119z"/>
	<path class="st0" d="M1304,17.9c24,0,34.5,16.6,34.5,39.7v80.2c0,22.9-10.5,39.7-34.5,39.7c-24,0-34.5-16.8-34.5-39.7V57.5
		C1269.5,34.4,1280.1,17.9,1304,17.9z M1304,167.9c17.2,0,24.2-12.5,24.2-29.8V56.8c0-17-7-29.5-24.2-29.5
		c-17.2,0-24.2,12.5-24.2,29.5v81.3C1279.9,155.3,1286.7,167.9,1304,167.9z"/>
</g>
<g>
	<path class="st0" d="M1284.9,216.1h-8.7v13h8.3c0.9,0,2.6-0.3,5.2-0.9c1.3-0.3,2.4-0.9,3.2-2c0.8-1.1,1.2-2.3,1.2-3.7
		c0-2.1-0.7-3.7-2-4.8C1291,216.7,1288.6,216.1,1284.9,216.1z"/>
	<path class="st0" d="M1099.5,191v88.4h239.1V191H1099.5z M1176.5,258.4c-2.5,3.3-5.6,5.7-9.3,7.4c-3.7,1.7-8.4,2.5-14.2,2.5
		c-7,0-12.6-1-17-3c-4.4-2-8.2-5.6-11.4-10.7c-3.2-5.1-4.8-11.6-4.8-19.5c0-10.6,2.8-18.7,8.4-24.4s13.6-8.5,23.9-8.5
		c8.1,0,14.4,1.6,19,4.9c4.6,3.3,8,8.3,10.3,15l-17.5,3.9c-0.6-1.9-1.3-3.4-1.9-4.3c-1.1-1.5-2.5-2.7-4.1-3.5
		c-1.6-0.8-3.4-1.2-5.4-1.2c-4.5,0-7.9,1.8-10.3,5.4c-1.8,2.7-2.7,6.9-2.7,12.6c0,7.1,1.1,12,3.2,14.6c2.2,2.6,5.2,3.9,9.1,3.9
		c3.8,0,6.6-1.1,8.6-3.2c1.9-2.1,3.3-5.2,4.2-9.3l17.3,5.2C1180.8,251.1,1179,255.1,1176.5,258.4z M1242.8,257.7
		c-2.3,3.5-5.4,6.1-9.5,7.9c-4.1,1.8-9.2,2.7-15.4,2.7c-10.9,0-18.4-2.1-22.6-6.3c-4.2-4.2-6.6-9.5-7.1-16l18.8-1.2
		c0.4,3.1,1.2,5.4,2.5,7c2,2.6,4.9,3.9,8.7,3.9c2.8,0,5-0.7,6.5-2c1.5-1.3,2.3-2.9,2.3-4.6c0-1.7-0.7-3.1-2.2-4.5
		c-1.5-1.3-4.8-2.5-10.1-3.7c-8.7-1.9-14.9-4.5-18.6-7.8c-3.7-3.2-5.6-7.3-5.6-12.4c0-3.3,1-6.4,2.9-9.3c1.9-2.9,4.8-5.2,8.6-6.9
		c3.8-1.7,9.1-2.5,15.7-2.5c8.2,0,14.4,1.5,18.7,4.6c4.3,3,6.8,7.9,7.7,14.5l-18.6,1.1c-0.5-2.9-1.5-5-3.1-6.3c-1.6-1.3-3.8-2-6.6-2
		c-2.3,0-4,0.5-5.2,1.5c-1.2,1-1.7,2.2-1.7,3.6c0,1,0.5,1.9,1.4,2.8c0.9,0.8,3.1,1.6,6.6,2.4c8.6,1.9,14.8,3.7,18.6,5.7
		c3.7,1.9,6.5,4.3,8.2,7.1c1.7,2.8,2.6,6,2.6,9.5C1246.2,250.5,1245,254.2,1242.8,257.7z M1297,267.2l-10.6-19.6
		c-1.3-2.5-2.5-4.2-3.6-4.9c-1.4-1-3-1.5-4.8-1.5h-1.7v26h-19.9v-64h33c6.1,0,10.8,0.5,14,1.6c3.2,1,5.8,3,7.8,5.8
		c2,2.8,3,6.3,3,10.4c0,3.6-0.8,6.6-2.3,9.2c-1.5,2.6-3.6,4.7-6.2,6.3c-1.7,1-4,1.9-6.9,2.5c2.4,0.8,4.1,1.6,5.1,2.4
		c0.7,0.5,1.8,1.6,3.2,3.4c1.4,1.7,2.3,3,2.8,4l9.6,18.5H1297z"/>
</g>
</svg>
