<svg xmlns="http://www.w3.org/2000/svg" viewBox="0 0 1751.3 231.9"><defs><style>.cls-1{fill:#fff;}.cls-2{fill:#9ac255;}</style></defs><g id="Layer_2" data-name="Layer 2"><g id="Layer_1-2" data-name="Layer 1"><path class="cls-1" d="M346.5,0c-41.7,0-77,19-98.4,48.3L167.2,148.4c-13.4,16.2-27.1,27.1-50.3,27.1-31.2,0-53.2-26.1-53.2-59.6v-.6c0-32.5,22-58.9,53.2-58.9,21.3,0,36,10.2,48.7,26.1l46.5-36C192.4,19.1,163,0,117.5,0,50,0,0,51,0,115.9v.6c0,66.6,51.3,115.3,115,115.3,49.4,0,77.7-21.3,98.7-50.3l19.1-26.1c15.9,44.7,59,76.5,113.1,76.5,68.8,0,120.4-51.9,120.4-115.9v-.6C466.3,51.3,415.3,0,346.5,0Zm56.7,116.6c0,32.2-22.6,59.6-56.7,59.6-33.8,0-57-28-57-60.2v-.6c0-32.2,22.6-59.6,56.4-59.6,34.1,0,57.3,28,57.3,60.2v.6Z"/><path class="cls-1" d="M498.4,4.4H603.8c34.1,0,57.7,8.9,72.6,24.2,13.1,12.7,19.7,29.9,19.7,51.9v.6c0,34.1-18.2,56.7-45.9,68.5l53.2,77.7H632.2l-44.9-67.5H560.2v67.5H498.4ZM601,111.5c21,0,33.1-10.2,33.1-26.4v-.6c0-17.5-12.7-26.4-33.4-26.4H560.2v53.5H601Z"/><path class="cls-1" d="M727.5,4.4H906.8V57H788.6V90.8h107v48.7h-107v35.4H908.4v52.6H727.5Z"/><path class="cls-1" d="M1033.5,58.3v5.4c0,22-10.5,39.5-29.6,46.2,20.1,6.1,29.6,23.3,29.6,45.2v17.2c0,32.5-14,56.4-48.1,56.4s-48.1-23.9-48.1-56.4V159.6h14V173c0,24.2,9.2,42.4,33.8,42.4s33.8-17.8,33.8-43.3V154.9c0-23.3-11.5-36.6-33.1-37.6h-15V103.9h15.6c20.1-1.3,32.5-15.9,32.5-37.3v-8c0-25.5-9.2-43.3-33.8-43.3s-33.8,17.8-33.8,42v8.9h-14v-8c0-32.5,14-56.4,48.1-56.4C1019.4,2,1033.5,25.9,1033.5,58.3Z"/><path class="cls-1" d="M1154.8,57.4v2.5h-14V56.4c0-23.9-9.2-41.1-33.8-41.1-25.2,0-35,17.8-35,44v51.6c7.3-12.4,19.7-20.4,39.8-20.4,31.2,0,44,23.3,44,54.5v27.4c0,32.5-15,56.4-49.1,56.4-34.4,0-49.4-23.9-49.4-56.4V59c0-33.4,14.7-57,49.4-57C1140.8,2,1154.8,24.9,1154.8,57.4ZM1072,145.9V173c0,24.5,9.9,42,34.7,42,24.5,0,34.4-17.5,34.4-42V145.9c0-23.9-9.9-41.7-34.4-41.7C1081.9,104.2,1072,122.1,1072,145.9Z"/><path class="cls-1" d="M1228.1,2c34.1,0,49.1,23.6,49.1,56.4v114c0,32.5-15,56.4-49.1,56.4s-49.1-23.9-49.1-56.4V58.4C1179,25.5,1194,2,1228.1,2Zm0,213.4c24.5,0,34.4-17.8,34.4-42.4V57.4c0-24.2-9.9-42-34.4-42s-34.4,17.8-34.4,42V173C1193.7,197.5,1203.5,215.4,1228.1,215.4Z"/><path class="cls-2" d="M1483.47,163.33v13.78a49.69,49.69,0,0,1-3.92,19.58,54.32,54.32,0,0,1-10.8,16.45,52.26,52.26,0,0,1-16.14,11.43,47.21,47.21,0,0,1-19.89,4.23,71.5,71.5,0,0,1-18.48-2.51,43.64,43.64,0,0,1-16.92-8.77A48.34,48.34,0,0,1,1385,201.39q-4.86-9.87-4.86-25.22V53.37A54.49,54.49,0,0,1,1383.85,33a48.15,48.15,0,0,1,10.65-16.29A49.52,49.52,0,0,1,1411,5.92,55.27,55.27,0,0,1,1432.09,2q22.56,0,36.66,14.72a52.44,52.44,0,0,1,10.8,17.08,57.66,57.66,0,0,1,3.92,21.45V67.78h-32V57.13a25.89,25.89,0,0,0-5.33-16.29A17.26,17.26,0,0,0,1431.78,34q-11.91,0-15.82,7.36T1412.05,60V174q0,9.71,4.22,16.29t15.2,6.58a23.25,23.25,0,0,0,6.73-1.1,20.14,20.14,0,0,0,6.74-3.6,19.22,19.22,0,0,0,4.7-6.89,28,28,0,0,0,1.88-11v-11Z"/><path class="cls-2" d="M1612.84,68.1h-31.95V60.89a34.11,34.11,0,0,0-5.17-19q-5.16-8-17.38-8-6.58,0-10.65,2.51a21,21,0,0,0-6.58,6.26,26.46,26.46,0,0,0-3.45,9.24,61,61,0,0,0-.94,10.81,107,107,0,0,0,.47,11,20.84,20.84,0,0,0,2.35,7.83,17.36,17.36,0,0,0,5.48,6,50.26,50.26,0,0,0,9.87,5l24.44,9.71a60.83,60.83,0,0,1,17.22,9.56,41.12,41.12,0,0,1,10.34,12.68,59.48,59.48,0,0,1,4.7,17.08,169.88,169.88,0,0,1,1.25,21.77,114.78,114.78,0,0,1-2.82,26.16,55,55,0,0,1-9.08,20.51,45.11,45.11,0,0,1-17.23,13.79q-10.65,5-26,5a56.93,56.93,0,0,1-21.61-4.07,51.29,51.29,0,0,1-17.23-11.28,54.75,54.75,0,0,1-11.44-16.76,50.87,50.87,0,0,1-4.23-20.83V164h32v10a26.13,26.13,0,0,0,5.16,15.82q5.17,7,17.39,7,8.14,0,12.69-2.35a17,17,0,0,0,7-6.74,24.82,24.82,0,0,0,3-10.49q.48-6.11.47-13.63a137.46,137.46,0,0,0-.62-14.41,25.08,25.08,0,0,0-2.51-9.08,17.58,17.58,0,0,0-5.8-5.64,74.73,74.73,0,0,0-9.55-4.7l-22.87-9.4Q1518.87,112,1511.82,98t-7-34.93a80.63,80.63,0,0,1,3.45-23.8,54.07,54.07,0,0,1,10.33-19.42,47.43,47.43,0,0,1,16.76-13Q1545.5,2,1559.59,2a52.93,52.93,0,0,1,21.77,4.39A56,56,0,0,1,1598.43,18q14.41,15,14.41,34.45Z"/><path class="cls-2" d="M1636.65,226.92V3.88H1688q56.38,0,56.39,65.47,0,19.74-6.11,33.52t-21.46,22.24l34.46,101.81h-33.83l-29.76-95.23H1668.6v95.23ZM1668.6,34V103.5h18.17q8.46,0,13.47-2.35a18.31,18.31,0,0,0,7.83-6.74,30.63,30.63,0,0,0,3.45-10.81,104.7,104.7,0,0,0,.94-14.87,105,105,0,0,0-.94-14.89,29.94,29.94,0,0,0-3.76-11.12q-6-8.76-22.56-8.77Z"/></g></g></svg>