<svg xmlns="http://www.w3.org/2000/svg" width="22.273" height="25.112" viewBox="0 0 22.273 25.112"><path d="M330.962-1846.453q0-5.374,0-10.749c0-1.174.481-1.725,1.657-1.731q6.672-.034,13.344,0a1.525,1.525,0,0,1,1.681,1.738c.01,1.915.051,3.831.008,5.745-.016.716.215.905.894.867.955-.055,1.915-.03,2.872-.01,1.27.027,1.786.553,1.788,1.822q.01,6.626,0,13.252c0,1.191-.481,1.67-1.685,1.672q-9.405.011-18.811.009c-1.334,0-1.768-.437-1.77-1.773q-.008-5.421,0-10.842Zm2.775.088c0,2.995.01,5.99-.01,8.984,0,.523.078.778.694.776q7.641-.032,15.283-.006c.482,0,.721-.1.717-.665q-.035-4.863,0-9.725c0-.53-.17-.7-.69-.685-1.049.031-2.1.028-3.149,0-1.211-.027-1.729-.567-1.732-1.777-.006-1.914-.028-3.829.013-5.742.014-.648-.181-.84-.829-.834q-4.769.044-9.54,0c-.616-.006-.774.184-.768.781C333.752-1852.293,333.737-1849.329,333.737-1846.365Z" transform="translate(-330.938 1858.95)" fill="#fff"/><path d="M348.808-1819.1c1.6,0,3.2.015,4.806-.009.493-.007.743.086.677.658-.051.436.048.827-.64.821q-4.944-.046-9.889,0c-.681.006-.609-.377-.642-.823-.041-.554.2-.663.7-.656C345.48-1819.088,347.144-1819.1,348.808-1819.1Z" transform="translate(-337.567 1837.265)" fill="#fff"/><path d="M348.686-1826.854c-1.632,0-3.265-.032-4.9.016-.646.019-.658-.282-.68-.775-.024-.56.207-.659.7-.656,3.233.018,6.467.023,9.7,0,.607,0,.76.2.786.787.032.707-.365.633-.808.632C351.888-1826.857,350.287-1826.854,348.686-1826.854Z" transform="translate(-337.563 1842.25)" fill="#fff"/><path d="M345.917-1835.965c-.741,0-1.485-.027-2.225.009-.668.032-.533-.421-.561-.8-.032-.432.05-.683.587-.671q2.224.049,4.449,0c.579-.014.56.3.552.7s.072.815-.579.777C347.4-1836,346.658-1835.965,345.917-1835.965Z" transform="translate(-337.573 1847.237)" fill="#fff"/><path d="M345.912-1845.215c-.679,0-1.36-.024-2.037.008-.514.024-.778-.064-.781-.687s.236-.706.764-.694c1.388.032,2.778.031,4.167,0,.518-.01.7.155.691.686-.005.509-.133.724-.675.693C347.333-1845.245,346.622-1845.215,345.912-1845.215Z" transform="translate(-337.555 1852.222)" fill="#fff"/></svg>