<svg xmlns="http://www.w3.org/2000/svg" width="135.113" height="135.543" viewBox="0 0 135.113 135.543">
  <g id="Group_18524" data-name="Group 18524" transform="translate(479.467 383.953)">
    <path id="Path_26562" data-name="Path 26562" d="M-479.454-316.241q0-24.725.005-49.45c.013-11.977,6.092-18.11,18.122-18.161,14.656-.061,29.315.118,43.969-.1,4.234-.062,5.949.968,5.762,5.549-.465,11.434,1.568,9.916-10.211,9.982-12.99.072-25.984.109-38.972-.091-2.953-.046-3.7.83-3.7,3.617q.1,48.7.005,97.4c-.006,2.694.581,3.7,3.624,3.688q48.966-.208,97.933-.015c3.085.012,3.518-1.037,3.5-3.677-.1-14.651.067-29.3-.128-43.954-.049-3.723,1.028-4.842,4.787-4.795,10.314.126,10.316-.048,10.316,10.164,0,13.487.025,26.974-.011,40.46-.026,10.32-6.424,17.1-16.609,17.13q-50.717.148-101.432-.014c-10.782-.043-16.914-6.516-16.948-17.287C-479.493-282.607-479.453-299.424-479.454-316.241Z" fill="#0098da"/>
    <path id="Path_26563" data-name="Path 26563" d="M-361.385-357.711a65.472,65.472,0,0,1-5.153,6.659c-20.9,21.008-41.92,41.885-62.75,62.956-2.778,2.81-4.316,2.841-7.034,0-6.763-7.075-6.9-6.94-.155-13.688q30.9-30.893,61.8-61.792c1.252-1.253,2.423-2.587,4.508-4.823-7.714,0-14.278-.21-20.821.075-4.224.184-5.967-.959-5.787-5.541.446-11.37-1.5-9.918,10.231-9.984,12.32-.07,24.642.091,36.96-.078,3.794-.052,5.3.991,5.233,5.072-.221,14.31-.188,28.627-.014,42.938.045,3.668-1.024,4.974-4.8,4.881-12.014-.293-10.138,1.107-10.278-9.948-.065-5.13-.011-10.262-.011-15.394Z" fill="#0098da"/>
  </g>
</svg>
