<svg xmlns="http://www.w3.org/2000/svg" width="19.899" height="15.477" viewBox="0 0 19.899 15.477"><defs><style>.a{fill:#fff;}</style></defs><g transform="translate(0 0)"><path class="a" d="M237.633-1762.545c-3.036,2.854-5.989,5.632-8.944,8.407-.8.749-.793.738-1.6-.026-2.93-2.766-5.866-5.526-8.9-8.381Z" transform="translate(-218.127 1762.545)"/><path class="a" d="M218.207-1733.244c2.116-2.36,4.171-4.639,6.206-6.936.261-.294.4-.144.6.018.8.659,1.611,1.3,2.38,1.984.384.344.585.407.987-.033.793-.869,1.692-1.643,2.563-2.472a2.1,2.1,0,0,1,.188.179q3.219,3.6,6.444,7.2C237.015-1733.142,219.53-1733.083,218.207-1733.244Z" transform="translate(-218.138 1748.626)"/><path class="a" d="M263.53-1746c-1.77-2.2-3.455-4.3-5.155-6.4-.242-.3-.1-.467.1-.68,1.66-1.777,3.314-3.558,5.059-5.433Z" transform="translate(-243.631 1759.973)"/><path class="a" d="M218.1-1745.939c-.135-1.262-.1-11.8.039-12.422,1.708,1.839,3.389,3.656,5.079,5.463a.407.407,0,0,1,.022.631C221.553-1750.195,219.87-1748.118,218.1-1745.939Z" transform="translate(-218.018 1759.881)"/></g></svg>