<svg xmlns="http://www.w3.org/2000/svg" width="149.415" height="149.782" viewBox="0 0 149.415 149.782">
  <g id="Group_18526" data-name="Group 18526" transform="translate(338.907 200.108)">
    <path id="Path_26566" data-name="Path 26566" d="M-338.845-125.689C-340.216-164-306.572-200.641-263.68-200.1c41.65.524,74.869,34.354,74.177,75.576-.7,41.806-34.329,74.631-75.6,74.2C-307.348-50.775-340.542-87.029-338.845-125.689Z" fill="#0098da"/>
    <path id="Path_26567" data-name="Path 26567" d="M-264.043-177.417c19.833.162,34.441,19.6,28.434,37.69-2.219,6.681-7.768,10.706-12.088,15.659-4.734,5.428-8.276,11.194-8.931,18.48-.015.166.037.378-.047.492-3.4,4.618-8.186,1.162-12.251,2.023-2.568.544-2.861-1.514-2.8-3.53a30.4,30.4,0,0,1,8.192-20.351q5.071-5.506,10.27-10.9c4.617-4.813,5-10.425,2.539-16.168-2.41-5.618-9.371-9.625-15.025-8.733-6.44,1.017-11.108,4.878-12.735,11.15-1.037,3.994-3.162,4.276-6.437,4.253-10.7-.072-11.272-.836-7.343-10.943C-287.563-170.4-277.043-177.523-264.043-177.417Z" fill="#dfdfde"/>
    <path id="Path_26568" data-name="Path 26568" d="M-264.361-72.994c-8.206-.093-7.387.946-7.375-7.456.012-8.335-.838-6.988,8.758-7.045,7.348-.043,6.341-.631,6.36,7.933C-256.6-71.907-256.045-73.1-264.361-72.994Z" fill="#dfdede"/>
  </g>
</svg>
