<svg xmlns="http://www.w3.org/2000/svg" width="25.006" height="23.33" viewBox="0 0 25.006 23.33"><path d="M195.673-752.276c-3.475,0-6.95-.012-10.425.007a1.9,1.9,0,0,1-2.043-2.017c.048-1.377.016-2.756.007-4.135a1.723,1.723,0,0,1,.288-.982q2.011-3.083,4.016-6.17c.141-.217.217-.229.393-.037q.741.805,1.518,1.577a.3.3,0,0,1,.043.445q-1.273,2.171-2.53,4.352c-.185.319-.181.322.19.322,1.622,0,3.243,0,4.865,0,.239,0,.351.021.379.32a3.337,3.337,0,0,0,3.427,3.021,3.345,3.345,0,0,0,3.252-3.063c.019-.239.1-.278.31-.277,1.633.007,3.266,0,4.9,0,.109,0,.26.058.318-.052s-.071-.207-.126-.3c-.827-1.433-1.652-2.867-2.494-4.292a.34.34,0,0,1,.062-.5c.509-.506,1-1.027,1.5-1.551.147-.156.228-.211.374.015q2,3.092,4.012,6.172a1.827,1.827,0,0,1,.306,1.047c-.012,1.39,0,2.78,0,4.17a1.807,1.807,0,0,1-1.933,1.932q-4.552.009-9.1,0Z" transform="translate(-183.203 775.599)" fill="#fff"/><path d="M243.3-907.157c.961,0,1.923,0,2.884,0,.69,0,.99.307.99,1,0,1.4.009,2.8-.007,4.2,0,.3.087.364.37.36,1.239-.015,2.479,0,3.718-.008a.884.884,0,0,1,.92.54.861.861,0,0,1-.275,1q-3.871,4.015-7.737,8.034a1.04,1.04,0,0,1-1.724,0q-3.872-4.014-7.739-8.032a.875.875,0,0,1-.264-1.034.9.9,0,0,1,.941-.508c1.228.01,2.456-.006,3.683.008.28,0,.375-.059.372-.358-.016-1.39-.008-2.78-.007-4.17,0-.738.3-1.038,1.026-1.04C241.4-907.159,242.351-907.157,243.3-907.157Z" transform="translate(-230.795 907.158)" fill="#fff"/></svg>