<svg xmlns="http://www.w3.org/2000/svg" width="26.129" height="20.322" viewBox="0 0 26.129 20.322"><path d="M243.721-1762.545c-3.987,3.748-7.865,7.4-11.744,11.039-1.048.984-1.041.968-2.1-.034-3.847-3.632-7.7-7.256-11.683-11.005Z" transform="translate(-218.107 1762.545)" fill="#fff"/><path d="M218.207-1730.915c2.779-3.1,5.477-6.091,8.148-9.107.342-.386.527-.188.783.023,1.044.865,2.116,1.7,3.125,2.605.5.452.768.535,1.3-.044,1.042-1.141,2.221-2.158,3.365-3.246a2.72,2.72,0,0,1,.247.235q4.227,4.721,8.461,9.459C242.9-1730.78,219.944-1730.7,218.207-1730.915Z" transform="translate(-218.117 1751.112)" fill="#fff"/><path d="M265.184-1742.08c-2.324-2.888-4.537-5.651-6.769-8.4-.318-.392-.136-.613.126-.893,2.179-2.333,4.352-4.672,6.643-7.134Z" transform="translate(-239.055 1760.432)" fill="#fff"/><path d="M218.129-1742.05c-.177-1.657-.13-15.491.051-16.311,2.243,2.415,4.45,4.8,6.669,7.174a.535.535,0,0,1,.029.829C222.659-1747.638,220.45-1744.91,218.129-1742.05Z" transform="translate(-218.018 1760.357)" fill="#fff"/></svg>