<svg xmlns="http://www.w3.org/2000/svg" width="19.494" height="21.869" viewBox="0 0 19.494 21.869"><defs><style>.a{fill:#fff;}</style></defs><g transform="translate(-254.887 88)"><g transform="translate(254.887 -88)"><path class="a" d="M37.152,22.16h-.84a1.3,1.3,0,1,1,0-2.6h.84a1.291,1.291,0,0,1,.776.258,4.781,4.781,0,0,0,1.537-.47c0-.022,0-.044,0-.066V17.171a1.709,1.709,0,0,1,.556-1.268,4.758,4.758,0,0,0-9.436,0,1.712,1.712,0,0,1,.556,1.268v2.111a1.7,1.7,0,0,1-.2.788,8.079,8.079,0,0,0,1.754,2.7,4.561,4.561,0,0,0,1.485,1,3,3,0,0,0,2.284,0A4.6,4.6,0,0,0,38,22.721a7.117,7.117,0,0,0,.875-1.078,7.463,7.463,0,0,1-.81.143A1.29,1.29,0,0,1,37.152,22.16Z" transform="translate(-25.554 -10.116)"/><path class="a" d="M29.3,65.971a7.177,7.177,0,0,0-1.446-2.852,3.462,3.462,0,0,0-2.143-1.186c-.866-.2-1.914-.117-2.474-.291-.066.549-1.661,2.353-2.706,3.486l-.453-1.748a1.126,1.126,0,0,0,.415-1.013H18.774a1.136,1.136,0,0,0,.408,1.008l-.445,1.752C17.69,64,16.094,62.19,16.03,61.642c-.56.174-1.608.088-2.474.29a3.5,3.5,0,0,0-2.237,1.3A7.393,7.393,0,0,0,9.968,65.97a2.094,2.094,0,0,0-.02,1.074,2,2,0,0,0,.166.465c.905,1.711,5.664,2.239,9.514,2.239h.012c3.849,0,8.609-.526,9.514-2.239a2.068,2.068,0,0,0,.158-.42A2.108,2.108,0,0,0,29.3,65.971Z" transform="translate(-9.887 -47.879)"/><path class="a" d="M22.275,15.225h.053a1.057,1.057,0,0,0,1.056-1.058V12.056a1.053,1.053,0,0,0-.587-.945,5.423,5.423,0,0,1,10.831,0,1.054,1.054,0,0,0-.588.945v2.111a1.062,1.062,0,0,0,.076.393,5.176,5.176,0,0,1-2.522.841.636.636,0,0,0-.531-.289h-.84a.633.633,0,1,0,0,1.266h.84a.627.627,0,0,0,.559-.342,5.683,5.683,0,0,0,2.907-.979,1.043,1.043,0,0,0,.569.168h.053a1.057,1.057,0,0,0,1.056-1.058V12.056a1.052,1.052,0,0,0-.6-.952,6.4,6.4,0,0,0-12.782,0,1.051,1.051,0,0,0-.6.952v2.111A1.057,1.057,0,0,0,22.275,15.225Z" transform="translate(-18.466 -5)"/></g></g></svg>