<svg xmlns="http://www.w3.org/2000/svg" width="17.612" height="17.612" viewBox="0 0 17.612 17.612"><defs><style>.a{fill:#fff;}</style></defs><path class="a" d="M16.731,0H.881A.832.832,0,0,0,0,.881V4.227A.189.189,0,0,0,.176,4.4h17.26a.189.189,0,0,0,.176-.176V.881A.832.832,0,0,0,16.731,0Z"/><path class="a" d="M18.272,7H7.176A.189.189,0,0,0,7,7.176v11.1a.189.189,0,0,0,.176.176H17.567a.832.832,0,0,0,.881-.881V7.176A.189.189,0,0,0,18.272,7Z" transform="translate(-0.836 -0.836)"/><path class="a" d="M4.227,7H.176A.189.189,0,0,0,0,7.176V17.567a.832.832,0,0,0,.881.881H4.227a.189.189,0,0,0,.176-.176V7.176A.189.189,0,0,0,4.227,7Z" transform="translate(0 -0.836)"/></svg>