<svg xmlns="http://www.w3.org/2000/svg" width="25.331" height="27.394" viewBox="0 0 25.331 27.394"><defs><style>.a{fill:#3c94e3;}</style></defs><g transform="translate(-9.15 -6.01)"><g transform="translate(9.15 6.01)"><path class="a" d="M55.406,48.64H52.776a.532.532,0,0,0-.526.536v2.05a.53.53,0,0,0,.526.536h2.629a.532.532,0,0,0,.526-.536v-2.05A.532.532,0,0,0,55.406,48.64Z" transform="translate(-38.981 -35.516)"/><path class="a" d="M69.916,48.64H67.286a.532.532,0,0,0-.526.536v2.05a.53.53,0,0,0,.526.536h2.629a.532.532,0,0,0,.526-.536v-2.05A.53.53,0,0,0,69.916,48.64Z" transform="translate(-49.024 -35.516)"/><path class="a" d="M26.376,61.09H23.746a.532.532,0,0,0-.526.536v2.05a.53.53,0,0,0,.526.536h2.629a.532.532,0,0,0,.526-.536v-2.05A.53.53,0,0,0,26.376,61.09Z" transform="translate(-18.888 -44.133)"/><path class="a" d="M40.9,61.09H38.266a.532.532,0,0,0-.526.536v2.05a.53.53,0,0,0,.526.536H40.9a.532.532,0,0,0,.526-.536v-2.05A.534.534,0,0,0,40.9,61.09Z" transform="translate(-28.938 -44.133)"/><path class="a" d="M55.406,61.09H52.776a.532.532,0,0,0-.526.536v2.05a.53.53,0,0,0,.526.536h2.629a.532.532,0,0,0,.526-.536v-2.05A.532.532,0,0,0,55.406,61.09Z" transform="translate(-38.981 -44.133)"/><path class="a" d="M69.916,61.09H67.286a.532.532,0,0,0-.526.536v2.05a.53.53,0,0,0,.526.536h2.629a.532.532,0,0,0,.526-.536v-2.05A.53.53,0,0,0,69.916,61.09Z" transform="translate(-49.024 -44.133)"/><path class="a" d="M26.376,73.54H23.746a.532.532,0,0,0-.526.536v2.05a.53.53,0,0,0,.526.536h2.629a.532.532,0,0,0,.526-.536v-2.05A.53.53,0,0,0,26.376,73.54Z" transform="translate(-18.888 -52.75)"/><path class="a" d="M40.9,73.54H38.266a.532.532,0,0,0-.526.536v2.05a.53.53,0,0,0,.526.536H40.9a.532.532,0,0,0,.526-.536v-2.05A.534.534,0,0,0,40.9,73.54Z" transform="translate(-28.938 -52.75)"/><path class="a" d="M55.406,73.54H52.776a.532.532,0,0,0-.526.536v2.05a.53.53,0,0,0,.526.536h2.629a.532.532,0,0,0,.526-.536v-2.05A.532.532,0,0,0,55.406,73.54Z" transform="translate(-38.981 -52.75)"/><path class="a" d="M67.564,12.281h.745a1.155,1.155,0,0,0,1.244-1.034v-4.2A1.153,1.153,0,0,0,68.309,6.01h-.745A1.155,1.155,0,0,0,66.32,7.044v4.2A1.155,1.155,0,0,0,67.564,12.281Z" transform="translate(-48.719 -6.01)"/><path class="a" d="M33.065,13.67h-2.6v3.18a1.613,1.613,0,0,1-1.613,1.613h-.961a1.611,1.611,0,0,1-1.613-1.613V13.67H17.358v3.18a1.613,1.613,0,0,1-1.613,1.613h-.961a1.611,1.611,0,0,1-1.613-1.613V13.67h-2.6A1.416,1.416,0,0,0,9.15,15.086v22.2a1.416,1.416,0,0,0,1.416,1.416h22.5a1.416,1.416,0,0,0,1.416-1.416v-22.2A1.416,1.416,0,0,0,33.065,13.67ZM32.129,34.7a1.484,1.484,0,0,1-1.416,1.545H12.918A1.486,1.486,0,0,1,11.5,34.7V24.645A1.484,1.484,0,0,1,12.918,23.1H30.713a1.486,1.486,0,0,1,1.416,1.545Z" transform="translate(-9.15 -11.312)"/><path class="a" d="M25,12.281h.745a1.155,1.155,0,0,0,1.244-1.034v-4.2A1.153,1.153,0,0,0,25.749,6.01H25A1.155,1.155,0,0,0,23.76,7.044v4.2A1.155,1.155,0,0,0,25,12.281Z" transform="translate(-19.262 -6.01)"/></g></g></svg>