<svg xmlns="http://www.w3.org/2000/svg" width="25.196" height="25" viewBox="0 0 25.196 25"><defs><style>.a{fill:#06a8e0;}</style></defs><path class="a" d="M27.032,14.3V11.895a1.053,1.053,0,0,0-.308-.784l-5.4-5.4a1.25,1.25,0,0,0-.812-.308H9.311A1.1,1.1,0,0,0,8.219,6.52V14.3H6.12A1.154,1.154,0,0,0,5,15.478V25.837a1.118,1.118,0,0,0,1.12,1.092H8.191V29.28A1.118,1.118,0,0,0,9.283,30.4H25.857A1.129,1.129,0,0,0,27,29.28V26.928h2.072a1.1,1.1,0,0,0,1.12-1.092V15.478a1.136,1.136,0,0,0-1.12-1.176H27.032ZM10.459,28.048V20.8H24.793v7.251Zm0-13.746V7.668h8.9v4.227a1.153,1.153,0,0,0,1.148,1.148h4.283v1.288H10.459ZM27.032,18.67a1.176,1.176,0,1,1,1.148-1.2,1.166,1.166,0,0,1-1.148,1.2ZM12.139,22.085v1.68H23v-1.68Zm0,2.716v1.652H23V24.8Z" transform="translate(-5 -5.4)"/></svg>