<svg xmlns="http://www.w3.org/2000/svg" width="16.8" height="21" viewBox="0 0 16.8 21"><defs><style>.a{fill:gray;}</style></defs><g transform="translate(-2.116 -1.058)"><g transform="translate(2.116 1.058)"><path class="a" d="M10.514,285.358a5.774,5.774,0,1,0,5.779,5.774A5.781,5.781,0,0,0,10.514,285.358ZM5.3,295.521a4.46,4.46,0,0,0-3.188,4.273v5.557a1.012,1.012,0,0,0,.962,1.007H17.955a1.012,1.012,0,0,0,.962-1.007v-5.557a4.463,4.463,0,0,0-3.189-4.273,6.795,6.795,0,0,1-10.424,0Z" transform="translate(-2.116 -285.358)"/></g></g></svg>