<svg xmlns="http://www.w3.org/2000/svg" width="21.436" height="28.15" viewBox="0 0 21.436 28.15"><defs><style>.a{fill:#3c94e3;}</style></defs><g transform="translate(-77.817 -22)"><g transform="translate(77.817 22)"><g transform="translate(0 0)"><path class="a" d="M226.822,354.5v2.4a.064.064,0,0,0,.064.064h3.4a.064.064,0,0,0,.064-.064v-2.4Z" transform="translate(-217.859 -334.5)"/><rect class="a" width="1.667" height="1.821" transform="translate(9.878)"/><rect class="a" width="1.667" height="1.823" transform="translate(2.472 3.758) rotate(-45.057)"/><rect class="a" width="1.825" height="1.667" transform="translate(0 9.973)"/><rect class="a" width="1.825" height="1.667" transform="translate(19.611 9.961)"/><rect class="a" width="1.823" height="1.667" transform="translate(16.487 3.857) rotate(-44.943)"/><path class="a" d="M161.723,118.316h3.51V116.91a.834.834,0,0,1,.519-.772,5.791,5.791,0,0,0,3.648-5.36,5.923,5.923,0,0,0-11.843,0,5.791,5.791,0,0,0,3.648,5.36.834.834,0,0,1,.519.772Z" transform="translate(-152.761 -99.983)"/><g transform="translate(1.676 16.471)"><path class="a" d="M269.859,307.506H278a.064.064,0,0,0,.064-.064V295.891a.064.064,0,0,0-.064-.064h-4.044a7.572,7.572,0,0,1-1.511.993c0,.567.017,4.934.017,4.934a1.733,1.733,0,0,1-1.731,1.731h-.874Z" transform="translate(-259.984 -295.827)"/><path class="a" d="M105.75,295.827a.064.064,0,0,0-.064.064v11.552a.064.064,0,0,0,.064.064h8.144v-4.021h-.857a1.733,1.733,0,0,1-1.731-1.731V296.82a7.573,7.573,0,0,1-1.511-.993H105.75Z" transform="translate(-105.686 -295.827)"/></g></g></g></g></svg>