<svg xmlns="http://www.w3.org/2000/svg" width="18.626" height="22.595" viewBox="0 0 18.626 22.595"><defs><style>.a{fill:#fff;}</style></defs><g transform="translate(-10.033 -1)"><g transform="translate(10.033 1)"><path class="a" d="M85.346,23.1v-.448h-.563V23.1l-.442,0,0,1.238,1.448,0,0-1.242Z" transform="translate(-67.163 -17.648)"/><path class="a" d="M84.278,31.923l-.011,6.72h0l-.009,5.015.361.212.36,1.282.364-1.281.362-.185.009-5.052h0l.011-6.708Z" transform="translate(-67.103 -24.775)"/><path class="a" d="M24.3,4.434l7.76-.006c.982,0,.908-1.272,0-1.352L30.269,2.92a.644.644,0,0,1-.6-.594c0-.871-.227-1.326-1.05-1.326h-.9c-.824,0-1.049.456-1.049,1.328a.644.644,0,0,1-.6.594l-1.783.16C23.385,3.163,23.312,4.434,24.3,4.434Zm3.9-2.894a.508.508,0,1,1-.508.509A.509.509,0,0,1,28.192,1.539Z" transform="translate(-20.453 -1)"/><path class="a" d="M22.807,13.389a1.179,1.179,0,0,1-.244.641,1.015,1.015,0,0,1-.773.315l-8.031,0a1.014,1.014,0,0,1-.773-.315,1.185,1.185,0,0,1-.247-.64h-2.7l.01,19.724,15.482-.009-.01-19.723ZM13.784,29.518A.817.817,0,1,1,14.6,28.7.817.817,0,0,1,13.784,29.518Zm0-3.534a.817.817,0,1,1,.817-.817A.817.817,0,0,1,13.784,25.984Zm0-3.533a.817.817,0,1,1,.817-.817A.817.817,0,0,1,13.784,22.451Zm0-3.533A.817.817,0,1,1,14.6,18.1.817.817,0,0,1,13.784,18.917Zm2.034-1.291,6.547-.005v.938l-6.548,0Zm0,3.53h6.549v.938H15.818Zm0,3.533h6.549v.938H15.819Zm6.55,4.469-6.548.005v-.937l6.55-.005Z" transform="translate(-10.033 -10.524)"/></g></g></svg>