<svg xmlns="http://www.w3.org/2000/svg" width="22.277" height="22.277" viewBox="0 0 22.277 22.277"><defs><style>.a{fill:#3c94e3;}</style></defs><path class="a" d="M22.385,2.5H4.892A2.4,2.4,0,0,0,2.5,4.892V22.385a2.4,2.4,0,0,0,2.392,2.392H22.385a2.4,2.4,0,0,0,2.392-2.392V4.892A2.4,2.4,0,0,0,22.385,2.5ZM10,19.454a.411.411,0,0,1-.4.4H7.495a.411.411,0,0,1-.4-.4V10.778a.411.411,0,0,1,.4-.4h2.11a.411.411,0,0,1,.4.4Zm5.089,0a.411.411,0,0,1-.4.4h-2.11a.411.411,0,0,1-.4-.4V7.823a.411.411,0,0,1,.4-.4h2.11a.411.411,0,0,1,.4.4Zm5.089,0a.411.411,0,0,1-.4.4h-2.11a.411.411,0,0,1-.4-.4v-5.98a.411.411,0,0,1,.4-.4h2.11a.411.411,0,0,1,.4.4Z" transform="translate(-2.5 -2.5)"/></svg>