<svg xmlns="http://www.w3.org/2000/svg" width="15.531" height="15.53" viewBox="0 0 15.531 15.53"><path d="M3185.047-1107.24h7.856c.005.008.009.022.016.023a1.769,1.769,0,0,1,1.005.586,1.7,1.7,0,0,1,.434,1.126c0,.505,0,1.011,0,1.516,0,.465,0,.93,0,1.4,0,.094.025.124.119.119.131-.008.263,0,.394,0a1.8,1.8,0,0,1,1.45.612,1.542,1.542,0,0,1,.431,1.018c.01,1.319,0,2.639,0,3.958a.7.7,0,0,1-.014.148,1.824,1.824,0,0,1-.615,1.038,1.735,1.735,0,0,1-.777.382,4.18,4.18,0,0,1-.858.027c-.107,0-.135.031-.133.136,0,.591,0,1.183,0,1.774a1.436,1.436,0,0,1-.055.351,1.709,1.709,0,0,1-.613.941,1.583,1.583,0,0,1-.995.379q-3.707,0-7.415,0a1.614,1.614,0,0,1-1.088-.447,1.789,1.789,0,0,1-.6-1.439c.006-.521,0-1.041,0-1.562,0-.107-.029-.139-.135-.134-.177.009-.354.007-.531,0a1.727,1.727,0,0,1-1.375-.738,2.565,2.565,0,0,1-.329-.717v-4.246c.01-.01.026-.019.028-.031a1.787,1.787,0,0,1,1.306-1.4,3.377,3.377,0,0,1,.881-.055c.13,0,.158-.038.155-.16q-.013-.514,0-1.029c.014-.695-.05-1.391.032-2.083a1.7,1.7,0,0,1,.83-1.246A3.361,3.361,0,0,1,3185.047-1107.24Zm3.931,8.978q-2.017,0-4.034,0c-.113,0-.143.027-.143.141,0,1.511,0,3.023,0,4.534a.629.629,0,0,0,.666.671q3.526-.014,7.052,0a.611.611,0,0,0,.623-.619c0-1.527,0-3.053,0-4.58,0-.125-.04-.147-.153-.146Q3190.988-1098.259,3188.978-1098.262Zm0-4.215h4.019c.076,0,.156.028.156-.111-.006-.95,0-1.9-.005-2.851a.59.59,0,0,0-.6-.589q-3.564,0-7.127,0a.589.589,0,0,0-.162.017.633.633,0,0,0-.447.661c0,.9,0,1.81,0,2.714,0,.123.026.16.156.16C3186.3-1102.479,3187.635-1102.477,3188.975-1102.477Zm5.081,2.973a.872.872,0,0,0,.885-.835.878.878,0,0,0-.865-.91.867.867,0,0,0-.89.874A.855.855,0,0,0,3194.056-1099.5Z" transform="translate(-3181.225 1107.24)" fill="#3c94e3"/><path d="M3340.824-772.7c-.95,0-1.9,0-2.849,0-.114,0-.157-.021-.153-.146q.015-.477,0-.954c0-.125.04-.146.153-.146q2.856,0,5.713,0c.109,0,.149.02.145.139q-.014.485,0,.97c0,.119-.037.139-.145.139C3342.734-772.706,3341.779-772.7,3340.824-772.7Z" transform="translate(-3333.063 784.078)" fill="#3c94e3"/><path d="M3339.94-713.812c-.651,0-1.3,0-1.954,0-.116,0-.143-.032-.14-.143.008-.328.006-.656,0-.985,0-.092.023-.12.118-.119q1.992,0,3.984,0c.1,0,.119.029.117.12-.005.328-.007.656,0,.985,0,.112-.026.144-.141.143C3341.263-713.815,3340.6-713.812,3339.94-713.812Z" transform="translate(-3333.085 726.976)" fill="#3c94e3"/></svg>