<svg xmlns="http://www.w3.org/2000/svg" width="19.867" height="23.673" viewBox="0 0 19.867 23.673"><path d="M19.411,0c-3.031,2.85-5.979,5.623-8.929,8.393-.8.748-.792.736-1.6-.026C5.958,5.605,3.027,2.85,0,0Z" transform="translate(19.473 8.946) rotate(180)" fill="#279ccb"/><path d="M218.207-1733.256c2.113-2.356,4.165-4.631,6.2-6.924.26-.293.4-.143.6.018.794.658,1.609,1.293,2.376,1.981.384.344.584.407.986-.033.792-.868,1.689-1.64,2.558-2.468a2.064,2.064,0,0,1,.188.179q3.214,3.589,6.433,7.191C236.984-1733.154,219.528-1733.1,218.207-1733.256Z" transform="translate(-218.139 1756.834)" fill="#279ccb"/><path d="M263.521-1746.017c-1.767-2.2-3.449-4.3-5.147-6.385-.242-.3-.1-.466.1-.679,1.657-1.774,3.309-3.552,5.051-5.424Z" transform="translate(-243.654 1768.192)" fill="#279ccb"/><path d="M218.1-1745.96c-.135-1.26-.1-11.778.039-12.4,1.705,1.836,3.383,3.649,5.071,5.454a.407.407,0,0,1,.022.631C221.547-1750.208,219.867-1748.135,218.1-1745.96Z" transform="translate(-218.018 1768.101)" fill="#279ccb"/></svg>