<svg xmlns="http://www.w3.org/2000/svg" width="30.988" height="27.36" viewBox="0 0 30.988 27.36"><path d="M1361.87-949.594a9.454,9.454,0,0,0-.22,1.012q-.519,2.543-1.029,5.087t-1.031,5.1l-1.121,5.552q-.531,2.629-1.063,5.257c-.049.242-.109.483-.145.727-.019.132-.06.146-.178.108-1.161-.372-2.324-.739-3.486-1.108q-2.322-.737-4.643-1.477a.178.178,0,0,0-.234.074q-2.661,3.44-5.329,6.875c-.018.024-.039.046-.074.087-.119-.394-.234-.77-.347-1.146q-1.317-4.354-2.632-8.709a.3.3,0,0,0-.205-.208q-4.565-1.728-9.129-3.462l-.121-.047c.045-.072.124-.081.188-.11q8.225-3.659,16.451-7.316l14.144-6.289c.067-.03.138-.049.207-.073Zm-18.158,23.873a.2.2,0,0,0,.072-.141q.75-2.63,1.494-5.263a.724.724,0,0,1,.173-.294q.933-1.033,1.864-2.07l4.38-4.871,4.064-4.517,4.993-5.554.951-1.059c-.045-.018-.057.013-.074.028q-1.488,1.314-2.975,2.63-2.814,2.49-5.628,4.981-2.945,2.6-5.892,5.208-2.436,2.154-4.872,4.307a.175.175,0,0,0-.061.2c.284,1.191.561,2.384.842,3.577C1343.261-927.615,1343.485-926.674,1343.711-925.721Z" transform="translate(-1330.881 949.657)" fill="#fff"/></svg>