<svg xmlns="http://www.w3.org/2000/svg" width="24.779" height="22.064" viewBox="0 0 24.779 22.064"><path d="M1294.88-2035.208h-.678a1.159,1.159,0,0,0-.162-.04,4.85,4.85,0,0,1-2.623-1.072,4.882,4.882,0,0,1-1.89-3.935,4.826,4.826,0,0,1,1.355-3.4c.1-.105.141-.178.05-.325q-1.048-1.682-2.075-3.377a.193.193,0,0,0-.268-.1,4.618,4.618,0,0,1-2.2.146,4.941,4.941,0,0,1-3.912-3.153,10.525,10.525,0,0,1-.334-1.251v-1.064a.235.235,0,0,0,.051-.156,5,5,0,0,1,4.133-4.257,4.989,4.989,0,0,1,5.646,3.571.282.282,0,0,0,.328.25q2.239-.016,4.477,0c.2,0,.275-.071.325-.254a5.005,5.005,0,0,1,6.051-3.487,5.006,5.006,0,0,1,3.728,5.529,5.014,5.014,0,0,1-6.324,4.148.27.27,0,0,0-.376.144q-1,1.657-2.023,3.3a.236.236,0,0,0,.036.346,4.779,4.779,0,0,1,1.329,3.8,4.908,4.908,0,0,1-3.175,4.286A6.8,6.8,0,0,1,1294.88-2035.208Zm-.342-15.927c-.758,0-1.517,0-2.275,0-.148,0-.223.027-.267.193a4.748,4.748,0,0,1-1.193,2.124.211.211,0,0,0-.032.309q1.044,1.684,2.073,3.378a.2.2,0,0,0,.271.1,4.863,4.863,0,0,1,2.856,0,.2.2,0,0,0,.267-.109q1.029-1.693,2.074-3.377a.21.21,0,0,0-.04-.308,4.784,4.784,0,0,1-1.191-2.126.208.208,0,0,0-.246-.187C1296.07-2051.131,1295.3-2051.135,1294.538-2051.135Zm-10.147-1.12a2.778,2.778,0,0,0,2.77,2.77,2.784,2.784,0,0,0,2.774-2.769,2.77,2.77,0,0,0-2.773-2.764A2.764,2.764,0,0,0,1284.391-2052.255Zm20.3,0a2.763,2.763,0,0,0-2.771-2.763,2.77,2.77,0,0,0-2.773,2.764,2.784,2.784,0,0,0,2.774,2.769A2.778,2.778,0,0,0,1304.691-2052.255Zm-10.157,14.785a2.755,2.755,0,0,0,2.773-2.756,2.77,2.77,0,0,0-2.759-2.777,2.771,2.771,0,0,0-2.774,2.763A2.755,2.755,0,0,0,1294.534-2037.47Z" transform="translate(-1282.146 2057.272)" fill="#279ccb"/></svg>