<svg xmlns="http://www.w3.org/2000/svg" width="29.41" height="26.188" viewBox="0 0 29.41 26.188"><path d="M1297.259-2031.085h-.8a1.4,1.4,0,0,0-.192-.048,5.758,5.758,0,0,1-3.113-1.273,5.793,5.793,0,0,1-2.243-4.669,5.727,5.727,0,0,1,1.608-4.03c.117-.125.168-.212.06-.386q-1.244-2-2.463-4.008a.23.23,0,0,0-.318-.123,5.481,5.481,0,0,1-2.608.173,5.865,5.865,0,0,1-4.643-3.743,12.48,12.48,0,0,1-.4-1.484v-1.264a.278.278,0,0,0,.061-.186,5.934,5.934,0,0,1,4.9-5.052,5.922,5.922,0,0,1,6.7,4.237.335.335,0,0,0,.389.3q2.657-.018,5.314,0c.243,0,.326-.084.386-.3a5.94,5.94,0,0,1,7.181-4.138,5.943,5.943,0,0,1,4.425,6.561A5.95,5.95,0,0,1,1304-2045.6a.32.32,0,0,0-.446.171q-1.184,1.965-2.4,3.911a.28.28,0,0,0,.043.411,5.672,5.672,0,0,1,1.578,4.515,5.825,5.825,0,0,1-3.768,5.086A8.064,8.064,0,0,1,1297.259-2031.085Zm-.406-18.9c-.9,0-1.8,0-2.7,0-.176,0-.265.031-.316.228a5.633,5.633,0,0,1-1.416,2.521.251.251,0,0,0-.038.367q1.239,2,2.461,4.008a.233.233,0,0,0,.321.12,5.767,5.767,0,0,1,3.39,0,.233.233,0,0,0,.317-.13q1.222-2.009,2.462-4.008a.25.25,0,0,0-.048-.366,5.679,5.679,0,0,1-1.413-2.523.246.246,0,0,0-.292-.221C1298.672-2049.984,1297.762-2049.988,1296.853-2049.988Zm-12.042-1.329a3.3,3.3,0,0,0,3.287,3.288,3.305,3.305,0,0,0,3.293-3.286,3.288,3.288,0,0,0-3.291-3.281A3.279,3.279,0,0,0,1284.811-2051.317Zm24.092,0a3.279,3.279,0,0,0-3.289-3.279,3.287,3.287,0,0,0-3.291,3.28,3.305,3.305,0,0,0,3.292,3.287A3.3,3.3,0,0,0,1308.9-2051.317Zm-12.055,17.546a3.27,3.27,0,0,0,3.292-3.271,3.288,3.288,0,0,0-3.274-3.3,3.288,3.288,0,0,0-3.292,3.278A3.27,3.27,0,0,0,1296.848-2033.771Z" transform="translate(-1282.146 2057.272)" fill="#fff"/></svg>