<svg xmlns="http://www.w3.org/2000/svg" width="29.995" height="23.587" viewBox="0 0 29.995 23.587">
  <g id="VI4FIa.tif" transform="translate(-88.04 -34.531)">
    <g id="Group_9" data-name="Group 9" transform="translate(88.04 34.531)">
      <path id="Path_26" data-name="Path 26" d="M187.773,132.274a2.438,2.438,0,0,1-2.6,1.6c-4.73-.037-9.461-.014-14.192-.016-1.688,0-2.424-.738-2.425-2.427q0-3.565,0-7.129a2.044,2.044,0,0,1,2.3-2.289c4.775,0,9.551.02,14.326-.016a2.431,2.431,0,0,1,2.59,1.61Z" transform="translate(-157.778 -110.292)" fill="#fff"/>
      <path id="Path_27" data-name="Path 27" d="M135.555,78.287q3.628,0,7.257,0a2.036,2.036,0,0,1,2.267,2.251c-.008.677.3,1.556-.138,1.976-.4.388-1.27.106-1.932.108-3.018.01-6.037,0-9.055.005a3.6,3.6,0,0,0-3.93,3.918c0,1-.032,2,.013,3,.024.521-.156.652-.638.61-.463-.04-.932,0-1.4-.011a2.035,2.035,0,0,1-2.114-2.15q-.009-3.762,0-7.524a2.031,2.031,0,0,1,2.21-2.178C130.583,78.282,133.069,78.287,135.555,78.287Z" transform="translate(-120.818 -72.428)" fill="#fff"/>
      <path id="Path_28" data-name="Path 28" d="M97.724,34.533q3.6,0,7.2,0a2.047,2.047,0,0,1,2.336,2.311c-.005.656.291,1.5-.138,1.917-.4.384-1.228.107-1.867.109-3.265.011-6.53.063-9.793-.014A3.7,3.7,0,0,0,91.526,42.8c.045,1.042,0,2.087.014,3.131.006.35-.108.478-.457.45-.331-.026-.667.007-1-.01a2.026,2.026,0,0,1-2.024-2.044q-.035-3.9,0-7.795a2.026,2.026,0,0,1,2.2-2C92.749,34.525,95.237,34.533,97.724,34.533Z" transform="translate(-88.04 -34.531)" fill="#fff"/>
    </g>
  </g>
</svg>
